<?xml version="1.0" encoding="UTF-8"?>
<svg xmlns="http://www.w3.org/2000/svg" viewBox="0 0 512 512" width="512" height="512">
  <defs>
    <radialGradient id="bg" cx="50%" cy="42%" r="60%">
      <stop offset="0%" stop-color="#3a8a6a"/>
      <stop offset="100%" stop-color="#1a4a3a"/>
    </radialGradient>
  </defs>
  <!-- Maskable safe-zone full background -->
  <rect width="512" height="512" fill="#1f5043"/>
  <!-- Inner halo (within 80% safe zone) -->
  <circle cx="256" cy="256" r="200" fill="url(#bg)"/>
  <circle cx="256" cy="256" r="190" fill="none" stroke="#7fd9b0" stroke-width="2" opacity="0.4"/>
  <!-- Leusi portrait, scaled (original 0-100 viewBox) -->
  <g transform="translate(128 128) scale(2.56)">
    <!-- hair -->
    <path d="M 18 62 Q 14 38 28 24 Q 40 16 50 16 Q 60 16 72 24 Q 86 38 82 62 L 82 88 L 75 90 Q 76 74 75 60 Q 73 50 65 45 L 35 45 Q 27 50 25 60 Q 24 74 25 90 L 18 88 Z" fill="#5a3818"/>
    <path d="M 22 70 Q 20 55 24 50 L 28 88 L 22 88 Z" fill="#4a2c0e"/>
    <path d="M 78 70 Q 80 55 76 50 L 72 88 L 78 88 Z" fill="#4a2c0e"/>
    <!-- neck -->
    <path d="M 42 64 Q 50 68 58 64 L 58 76 L 42 76 Z" fill="#f0c8a0"/>
    <!-- face -->
    <ellipse cx="50" cy="52" rx="16" ry="18.5" fill="#f5d4b0"/>
    <ellipse cx="50" cy="40" rx="17" ry="3.5" fill="#000" opacity="0.15"/>
    <!-- cheeks -->
    <ellipse cx="41" cy="58" rx="3.5" ry="2.2" fill="#f5a890" opacity="0.55"/>
    <ellipse cx="59" cy="58" rx="3.5" ry="2.2" fill="#f5a890" opacity="0.55"/>
    <!-- hard hat -->
    <path d="M 28 41 Q 27 22 50 19 Q 73 22 72 41 Z" fill="#ffc31c"/>
    <ellipse cx="50" cy="24" rx="14" ry="3" fill="#ffe068" opacity="0.7"/>
    <rect x="32" y="32" width="36" height="2.5" rx="1" fill="#e0a500" opacity="0.4"/>
    <ellipse cx="50" cy="42" rx="26" ry="3" fill="#e0a500"/>
    <ellipse cx="50" cy="41.5" rx="26" ry="1.2" fill="#ffd040"/>
    <!-- eyes -->
    <ellipse cx="43.5" cy="51" rx="3.2" ry="3.6" fill="#fff"/>
    <ellipse cx="56.5" cy="51" rx="3.2" ry="3.6" fill="#fff"/>
    <ellipse cx="43.5" cy="51.5" rx="2.4" ry="2.8" fill="#6b3a1a"/>
    <ellipse cx="56.5" cy="51.5" rx="2.4" ry="2.8" fill="#6b3a1a"/>
    <ellipse cx="43.5" cy="52" rx="1.2" ry="1.6" fill="#1a1a1a"/>
    <ellipse cx="56.5" cy="52" rx="1.2" ry="1.6" fill="#1a1a1a"/>
    <circle cx="44.3" cy="50.4" r="0.8" fill="#fff"/>
    <circle cx="57.3" cy="50.4" r="0.8" fill="#fff"/>
    <!-- eyebrows -->
    <path d="M 40 45.5 Q 43.5 44 47 45.5" stroke="#3a2010" stroke-width="1.3" fill="none" stroke-linecap="round"/>
    <path d="M 53 45.5 Q 56.5 44 60 45.5" stroke="#3a2010" stroke-width="1.3" fill="none" stroke-linecap="round"/>
    <!-- smile -->
    <path d="M 43 61 Q 50 67 57 61 Q 56 63.5 50 64.5 Q 44 63.5 43 61 Z" fill="#7a2828"/>
    <path d="M 44.5 61.5 Q 50 65.5 55.5 61.5 Q 54.5 62.5 50 63 Q 45.5 62.5 44.5 61.5 Z" fill="#fff"/>
    <path d="M 43 61 Q 50 60 57 61" stroke="#c84a4a" stroke-width="0.6" fill="none" stroke-linecap="round"/>
    <!-- vest body -->
    <path d="M 22 100 L 22 80 Q 24 73 35 70 L 65 70 Q 76 73 78 80 L 78 100 Z" fill="#3a4252"/>
    <path d="M 22 100 L 22 80 Q 24 74 32 71 L 42 76 L 42 100 Z" fill="#ff8c1a"/>
    <path d="M 78 100 L 78 80 Q 76 74 68 71 L 58 76 L 58 100 Z" fill="#ff8c1a"/>
    <rect x="22" y="84" width="20" height="4" fill="#e8e8e8"/>
    <rect x="58" y="84" width="20" height="4" fill="#e8e8e8"/>
    <rect x="22" y="93" width="20" height="4" fill="#e8e8e8"/>
    <rect x="58" y="93" width="20" height="4" fill="#e8e8e8"/>
  </g>
</svg>
