<svg xmlns="http://www.w3.org/2000/svg" version="1.1" viewBox="-5.0 -10.0 110.0 135.0">
 <path d="m14.309 57.031c0.39062 0.39062 1.0195 0.39062 1.4102 0l26.711-26.711 12.711 12.711c0.19141 0.19141 0.44141 0.28906 0.71094 0.28906 0.26953 0 0.51953-0.10156 0.71094-0.28906l28.422-28.422v5.5898c0 0.55078 0.44922 1 1 1s1-0.44922 1-1v-8.3984c0-0.26172-0.10938-0.51953-0.28906-0.71094-0.19141-0.19141-0.44141-0.28906-0.71094-0.28906h-8.3984c-0.55078 0-1 0.44922-1 1s0.44922 1 1 1h6.3789l-28.102 28.102-12.711-12.711c-0.39062-0.39062-1.0195-0.39062-1.4102 0l-27.422 27.422c-0.39062 0.39062-0.39062 1.0195 0 1.4102z"/>
 <path d="m14.02 87.648c0 0.26172 0.10938 0.51953 0.28906 0.71094 0.19141 0.19141 0.44141 0.28906 0.71094 0.28906h70.945c0.26172 0 0.51953-0.10938 0.71094-0.28906 0.19141-0.19141 0.28906-0.44141 0.28906-0.71094l0.003906-61.52s-0.019531-0.078125-0.03125-0.12891c-0.011719-0.078125-0.019531-0.17188-0.050781-0.23828-0.03125-0.078125-0.078125-0.14062-0.12891-0.21094-0.03125-0.039062-0.039062-0.078125-0.070312-0.10938-0.070312-0.070312-0.16016-0.12891-0.25-0.17969-0.019531-0.011719-0.039062-0.039063-0.070312-0.050781-0.019532-0.011719-0.050782 0-0.078126-0.019532-0.10156-0.03125-0.19922-0.058594-0.30859-0.058594-0.050781 0-0.078125 0.019532-0.12891 0.03125-0.078124 0.011719-0.17187 0.019532-0.23828 0.050782-0.078125 0.03125-0.14062 0.078125-0.21094 0.12891-0.039063 0.03125-0.078125 0.039062-0.10938 0.070312l-29.422 28.32-12.719-12.719c-0.39062-0.39062-1.0195-0.39062-1.4102 0l-27.422 27.422c-0.089843 0.089844-0.16016 0.19922-0.21094 0.32031-0.050781 0.12109-0.078125 0.25-0.078125 0.37891v18.512zm2-18.09 21.648-21.648v38.75h-21.648zm47.309 17.09v-37.32l21.648-20.852v58.172zm-20.887-43.508 12.711 12.711c0.39062 0.39063 1.0117 0.39063 1.3984 0.011719l4.7812-4.6016v35.391h-21.648v-40.75l2.7695-2.7695z"/>
<text x="0.0" y="117.5" font-size="5.0" font-weight="bold" font-family="Arbeit Regular, Helvetica, Arial-Unicode, Arial, Sans-serif" fill="#000000"> Savannah Vize</text><text x="0.0" y="122.5" font-size="5.0" font-weight="bold" font-family="Arbeit Regular, Helvetica, Arial-Unicode, Arial, Sans-serif" fill="#000000">from Noun Project</text></svg>