<svg xmlns="http://www.w3.org/2000/svg" version="1.1" viewBox="-5.0 -10.0 110.0 135.0">
 <path d="m38.926 70.836c0 0.79297 0.015625 1.5898 0.015625 2.3828h0.003906c0 2.4062-1.9453 5.793-4.6562 5.8008l-3.1562-0.003906c0.042969 3.4102 0.10156 8.1289 2.6406 10.375 2.8711 2.5391 9 2.5625 12.723 2.2148 3.4453-0.32031 7.7344-1.1602 9.6602-3.8164 1.5859-2.1758 1.6797-5.7734 1.9648-16.211 0.32422-12.129 0.93359-34.133 3.2344-45.828 1.1289-5.7305 2.6836-9.0391 4.4375-10.992l-0.003907 0.003907c1.5156-1.6992 3.6484-2.7266 5.9219-2.8516 1.9883-0.34766 4.0352 0.039063 5.7578 1.0859 1.7227 1.1602 3.125 3.3008 3.9453 7.0547 1.1602 5.3516 1.1211 14.246 1 20.555l3.9844-3.9062c0.34766-0.33594 0.875-0.41016 1.3047-0.18359 0.42578 0.23047 0.65625 0.70703 0.56641 1.1836l-3.9961 20.539h9.6055c0.46094 0 0.875 0.28125 1.043 0.71484 0.16406 0.42969 0.046875 0.91797-0.29297 1.2266l-20.75 22.648c-0.32812 0.35156-0.84375 0.45312-1.2812 0.25391-0.43359-0.20312-0.69531-0.66016-0.63672-1.1367h-0.003907l2.6836-21.477h-9.6992l-0.003906-0.003906c-0.46875 0-0.88672-0.28906-1.0469-0.73047-0.16016-0.4375-0.03125-0.92969 0.32812-1.2305l15.93-15.656c0.10547-4.5078 0.15234-8.8008 0.035156-12.602h-0.003906c-0.03125-3.2578-0.34766-6.5078-0.94141-9.7148-0.67969-3.125-1.7422-4.8242-3.0117-5.6797-1.2969-0.74219-2.8164-1-4.2812-0.72266-1.7266 0.085938-3.3438 0.85156-4.5 2.1328-1.5078 1.6719-2.8672 4.6445-3.9062 9.9258-2.2695 11.539-2.8828 33.555-3.1992 45.453-0.30078 10.965-0.39844 14.738-2.3828 17.465-2.3828 3.2734-7.0938 4.3281-11.266 4.7188-4.4258 0.40625-10.953 0.28125-14.387-2.7617-3.1992-2.832-3.3398-7.8906-3.3906-12.039h-3.1875c-2.7227 0-4.6602-3.4336-4.6602-5.832v-2.4453c-0.53906-0.64062-0.95312-1.375-1.2188-2.1719-0.62891-1.7578-0.98438-3.6055-1.0547-5.4727v-2.9609c0.007812-0.75391 0.46875-1.4336 1.168-1.7148-0.39453-1.3828-0.90234-2.7266-1.5234-4.0195-0.69531-1.0508-1.5742-1.9727-2.5898-2.7227-0.83984-0.73047-1.8984-1.6406-3.2422-2.9258-0.41797-0.35937-0.80078-0.71484-1.1406-1.0586-9.3984-9.3984-8.1289-25.129 1.1094-34.363 6.3164-6.3281 15.531-8.8047 24.172-6.4961 8.6406 2.3047 15.391 9.0469 17.715 17.684 2.3203 8.6367-0.14453 17.855-6.4609 24.184-1.1602 1.3984-2.4805 2.6562-3.9375 3.7461-0.8125 0.56641-1.5312 1.2578-2.1289 2.0469-0.67188 1.2969-1.2188 2.6523-1.6289 4.0547 0.56641 0.32812 0.91406 0.93359 0.91406 1.5859v2.9609c-0.10547 1.9297-0.47656 3.8398-1.1016 5.6719-0.25 0.76562-0.65234 1.4688-1.1875 2.0664zm28.734-12.598h8.3711c0.29297 0.039063 0.5625 0.19141 0.74219 0.42578 0.18359 0.23438 0.26562 0.53125 0.22656 0.82422l-2.3984 19.27 16.758-18.289-8.4375-0.003906c-0.33203 0-0.64453-0.14844-0.85547-0.40234-0.21094-0.25781-0.30078-0.59375-0.23828-0.91797l3.5703-18.344zm-39.438-28.965c0.22656-0.86719 0.27344-1.7695 0.14062-2.6562-0.011719-0.054688-0.015625-0.10938-0.015625-0.16797 0.007813-0.58203 0.46484-1.0625 1.0508-1.0977 0.58594-0.035156 1.0938 0.39063 1.168 0.97266 0.054688 0.30859 0.089844 0.62109 0.10156 0.93359 0.875-0.53125 1.8125-0.96094 2.7852-1.2812 0.28125-0.11719 0.60156-0.10937 0.87891 0.019532 0.27734 0.12891 0.49219 0.36719 0.58984 0.65625 0.09375 0.28906 0.066406 0.60938-0.078125 0.87891s-0.39453 0.46484-0.69141 0.54297c-2.4883 0.76172-4.5742 2.4766-5.8008 4.7734-0.84375 1.4023-1.5391 2.8906-2.0742 4.4336 1.3906-0.83203 2.9336-1.375 4.5391-1.5977 0.60156-0.11719 1.1875 0.27344 1.3047 0.87891 0.12109 0.60547-0.27344 1.1875-0.87891 1.3086-1.6953 0.20312-3.3047 0.85547-4.668 1.8828-0.4375 0.31641-0.92188 0.69141-1.4102 1.0742-0.40625 1.4492-0.78125 2.9453-1.1523 4.4609 1.5195-0.085937 3.0234-0.36328 4.4727-0.82422 5.957-2.1484 8.3867-4.7344 8.9805-11.176 0.56641-6.2266 0.27734-7.3789 3.5703-14.16 0.10156-0.21484 0.18359-0.39062 0.26172-0.55078-0.09375 0.015625-0.17969 0.035156-0.26172 0.054687-5.9336 1.3672-11.117 2.6289-16.285 5.957-1.8047 1.1055-3.3555 2.5703-4.5625 4.3086-0.79688 1.2695-1.3359 2.6875-1.5781 4.1641-0.23438 2.8359 0.28516 5.6836 1.5117 8.2539 0.48828 1.0625 1.1172 2.0547 1.8633 2.9531l1.2383-4.7188c0.375-1.2852 0.77344-2.5234 1.2109-3.6797 0.011718-0.81641-0.054688-1.6328-0.19922-2.4375-0.19531-0.72656-0.48047-1.4258-0.84375-2.0859-0.13281-0.26172-0.16016-0.56641-0.066406-0.84766 0.089843-0.28125 0.29297-0.51172 0.55469-0.64453 0.26172-0.13281 0.57031-0.15625 0.84766-0.0625 0.28125 0.089843 0.51172 0.29297 0.64453 0.55469 0.3125 0.58594 0.58203 1.1953 0.80859 1.8164 0.58203-1.0273 1.2656-1.9961 2.0391-2.8906zm-4.6992 18.266h-0.003907c-0.17188 0.84766-0.28125 1.7031-0.32422 2.5664-0.015624 0.61328-0.52734 1.0938-1.1367 1.0781-0.61328-0.015625-1.0977-0.52344-1.0781-1.1367 0.042969-1.0703 0.17578-2.1367 0.39844-3.1875-1.3828-1.332-2.5-2.9141-3.3047-4.6602-1.3789-2.9375-1.957-6.1914-1.668-9.4258 0.28516-1.8203 0.94922-3.5625 1.9453-5.1133 1.375-1.9883 3.1445-3.6719 5.1992-4.9414 5.4141-3.4883 10.816-4.8242 16.992-6.2422h0.003906c0.92578-0.28516 1.9141-0.30078 2.8516-0.050781 0.47266 0.24219 0.71094 0.78516 0.56641 1.3008-0.27734 1-0.66797 1.9609-1.1641 2.875-2.8008 5.8125-2.5938 7.1289-3.1211 12.898-0.67969 7.3477-3.668 10.613-10.445 13.059-1.8438 0.60156-3.7695 0.93359-5.7109 0.98047zm14.539 20.367h-5.2188c-0.61719 0-1.1172-0.5-1.1172-1.1172 0-0.61328 0.5-1.1133 1.1172-1.1133h5.8125-0.003906c0.18359-0.85156 0.29297-1.7148 0.33594-2.582v-2.5742h-17.965v1.457h7.2539c0.61719 0 1.1172 0.5 1.1172 1.1172 0 0.61328-0.5 1.1133-1.1172 1.1133h-7.1758c0.14453 1.2266 0.42578 2.4336 0.83984 3.6016 0.14062 0.52734 0.36328 1.0312 0.66016 1.4922h14.812c0.30078-0.41797 0.51953-0.89062 0.64844-1.3906zm-14.77 3.6133v1.6719c0 1.3789 1.1914 3.6016 2.4336 3.6016h8.5625c1.2383 0 2.4297-2.2109 2.4297-3.582 0-0.5625-0.007812-1.1289-0.015625-1.6953zm-1.3984-14.383c0.14062 0.43359 0.25781 0.83203 0.34375 1.1562h15.824c0.47656-1.7227 1.1445-3.3867 1.9844-4.9648 0.71875-1.0195 1.6133-1.9023 2.6367-2.6133 1.3203-0.99219 2.5234-2.1328 3.5859-3.4023 0.039063-0.054688 0.082031-0.10547 0.125-0.15625 4.3711-4.3789 6.7773-10.352 6.6562-16.539-0.11719-6.1875-2.7461-12.062-7.2812-16.273-4.5352-4.2109-10.586-6.3984-16.77-6.0586-6.1797 0.33984-11.953 3.1797-16 7.8633-7.3477 8.5-8.0625 21.871 0.042969 29.977 1.3008 1.2539 3.3203 3.0625 4.2656 3.8828 1.25 0.92188 2.3086 2.0781 3.1211 3.4023 0.58594 1.2031 1.0781 2.4492 1.4688 3.7305z"/>
<text x="0.0" y="117.5" font-size="5.0" font-weight="bold" font-family="Arbeit Regular, Helvetica, Arial-Unicode, Arial, Sans-serif" fill="#000000"> Joniack</text><text x="0.0" y="122.5" font-size="5.0" font-weight="bold" font-family="Arbeit Regular, Helvetica, Arial-Unicode, Arial, Sans-serif" fill="#000000">from Noun Project</text></svg>