<svg xmlns="http://www.w3.org/2000/svg" xmlns:xlink="http://www.w3.org/1999/xlink" version="1.1" x="0px" y="0px" viewBox="0 0 96 120" enable-background="new 0 0 96 96" xml:space="preserve"><g><rect x="36.6337" y="74.3755" width="1.9499" height="5.3999"/><rect x="40.8763" y="74.3755" width="1.9499" height="5.3999"/><rect x="45.1189" y="74.3755" width="1.9499" height="5.3999"/><rect x="49.3625" y="74.3755" width="1.9499" height="5.3999"/><rect x="53.6051" y="74.3755" width="1.9499" height="5.3999"/><rect x="57.8477" y="74.3755" width="1.9499" height="5.3999"/><path d="M18.515,73.4757c-1.8547,0-3.3629,1.5086-3.3629,3.3629v4.3102h1.9499v-4.3102c0-0.7793,0.6341-1.4129,1.4129-1.4129   s1.4129,0.6336,1.4129,1.4129v4.3102h1.9499v-4.3102C21.8778,74.9844,20.3697,73.4757,18.515,73.4757z"/><path d="M27.422,73.4757c-1.8547,0-3.3629,1.5086-3.3629,3.3629v4.3102h1.9499v-4.3102c0-0.7793,0.6341-1.4129,1.4129-1.4129   c0.7798,0,1.4139,0.6336,1.4139,1.4129v4.3102h1.9499v-4.3102C30.7858,74.9844,29.2767,73.4757,27.422,73.4757z"/><path d="M18.515,83.7019c-1.8547,0-3.3629,1.5086-3.3629,3.3629v4.3102h1.9499v-4.3102c0-0.7793,0.6341-1.4129,1.4129-1.4129   s1.4129,0.6336,1.4129,1.4129v4.3102h1.9499v-4.3102C21.8778,85.2105,20.3697,83.7019,18.515,83.7019z"/><path d="M27.422,83.7019c-1.8547,0-3.3629,1.5086-3.3629,3.3629v4.3102h1.9499v-4.3102c0-0.7793,0.6341-1.4129,1.4129-1.4129   c0.7798,0,1.4139,0.6336,1.4139,1.4129v4.3102h1.9499v-4.3102C30.7858,85.2105,29.2767,83.7019,27.422,83.7019z"/><path d="M68.578,73.4757c-1.8547,0-3.3629,1.5086-3.3629,3.3629v4.3102h1.9499v-4.3102c0-0.7793,0.6341-1.4129,1.4129-1.4129   c0.7788,0,1.4129,0.6336,1.4129,1.4129v4.3102h1.9499v-4.3102C71.9409,74.9844,70.4327,73.4757,68.578,73.4757z"/><path d="M77.486,73.4757c-1.8547,0-3.3629,1.5086-3.3629,3.3629v4.3102h1.9499v-4.3102c0-0.7793,0.6341-1.4129,1.4129-1.4129   c0.7788,0,1.4129,0.6336,1.4129,1.4129v4.3102h1.9499v-4.3102C80.8488,74.9844,79.3407,73.4757,77.486,73.4757z"/><path d="M68.578,83.7019c-1.8547,0-3.3629,1.5086-3.3629,3.3629v4.3102h1.9499v-4.3102c0-0.7793,0.6341-1.4129,1.4129-1.4129   c0.7788,0,1.4129,0.6336,1.4129,1.4129v4.3102h1.9499v-4.3102C71.9409,85.2105,70.4327,83.7019,68.578,83.7019z"/><path d="M77.486,83.7019c-1.8547,0-3.3629,1.5086-3.3629,3.3629v4.3102h1.9499v-4.3102c0-0.7793,0.6341-1.4129,1.4129-1.4129   c0.7788,0,1.4129,0.6336,1.4129,1.4129v4.3102h1.9499v-4.3102C80.8488,85.2105,79.3407,83.7019,77.486,83.7019z"/><rect x="39.5795" y="60.5246" width="1.9499" height="5.1604"/><rect x="43.5241" y="60.5246" width="1.9499" height="5.1604"/><rect x="50.9172" y="60.5246" width="1.9499" height="5.1604"/><rect x="54.8619" y="60.5246" width="1.9499" height="5.1604"/><path d="M2.1767,94.9997c49.0796,0.0004,29.7971,0.0005,91.6465,0v-1.9499h-9.2898c0-6.1358,0-20.8618,0-25.3857L73.0272,54.6068   L61.5305,67.6645V70.15H60.326V56.8536l4.6949-5.6087v-5.568h-6.1486l-0.9805-7.6687l4.6403,4.6401l3.9436-3.9432l-11.781-11.781   h4.8429l-6.6531-8.3898l4.6174-4.6174l2.565,2.5645l8.9727-8.9737l-3.9427-3.9432L51.6652,16.9964l-3.4519-4.3531l-3.4485,4.351   l-4.4569-4.4567l2.565-2.5645L33.8992,1l-3.9427,3.9432l13.5892,13.5892l-6.6512,8.3917h4.8426l-2.808,2.8078l-2.564-2.5655   l-8.9737,8.9741l3.9436,3.9432l7.9454-7.9454l-1.7228,13.5386h-6.1465v5.568l4.6939,5.6086V70.15h-1.6348v-2.486L22.9642,54.6073   L11.4665,67.6645c0,4.7877,0,18.7131,0,25.3852H2.1767V94.9997z M65.0971,6.3218l1.1854,1.1859l-6.2154,6.2163l-1.1863-1.1859   L65.0971,6.3218z M38.9292,11.1586l-6.2154-6.2154l1.1854-1.1859l6.2163,6.2159L38.9292,11.1586z M31.3352,37.3264l-1.1863-1.1859   l6.2163-6.2159l1.1854,1.1859L31.3352,37.3264z M34.4705,87.9716h8.9099v5.0781h-8.9099V87.9716z M52.6216,87.9716h8.9089v5.0781   h-8.9089V87.9716z M50.6716,93.0497h-5.3414v-6.8481c0-0.6441,0.2333-1.2663,0.6551-1.7524   c1.0054-1.153,2.9715-1.1682,3.9951-0.039l0.0333,0.039c0.4246,0.4861,0.6579,1.1097,0.6579,1.7552V93.0497z M63.4804,93.0497   V72.0999h19.1032v20.9498H63.4804z M63.4804,68.4005l9.5468-10.8441l9.5564,10.8446v1.749H63.4804V68.4005z M37.5365,55.526   l-3.063-3.6604h27.485l-3.0637,3.6604H37.5365z M58.3761,57.4769V70.15h-9.186V57.4769H58.3761z M57.5021,32.4892l6.2163,6.2159   l-1.1863,1.1859l-6.2163-6.2159L57.5021,32.4892z M56.1234,31.1101l-2.565,2.565l2.0788,2.0787l1.2698,9.9232h-4.1436   l-0.879-18.7528h0.053L56.1234,31.1101z M46.4995,26.9284h3.4333l0.8788,18.7485h-5.1919L46.4995,26.9284z M48.2161,23.2028   l1.7714,1.7714h-3.5428L48.2161,23.2028z M55.5026,24.9742h-2.7578l-3.1501-3.1501l1.9017-1.9017L55.5026,24.9742z    M48.2133,15.7825l2.0636,2.6022l-2.0608,2.0608l-2.0634-2.0633L48.2133,15.7825z M40.9277,24.9742l4.0059-5.0539l1.9039,1.9039   l-3.1503,3.1501H40.9277z M41.5332,29.8857l2.9616-2.9616h0.053l-0.8798,18.7528h-4.1437L41.5332,29.8857z M63.071,47.6268v2.2889   H33.3613v-2.2889C69.91,47.6268,40.4645,47.6268,63.071,47.6268z M38.0552,57.4769h9.185V70.15h-9.185V57.4769z M61.5305,72.0999   v13.9218h-8.9251c-0.0411-1.0284-0.412-2.0164-1.0778-2.803l-0.0457-0.0538C50.604,82.159,49.3349,81.582,48,81.582   c-1.3368,0-2.6069,0.5784-3.4857,1.5876c-0.6914,0.7949-1.0765,1.8028-1.1178,2.8521h-8.9261V72.0999   C42.5912,72.0999,53.3926,72.0999,61.5305,72.0999z M13.4164,68.4005l9.5478-10.8436l9.5564,10.8441v1.749H13.4164V68.4005z    M13.4164,72.0999h19.1041v20.9498H13.4164V72.0999z"/><rect x="18.1332" y="6.845" width="1.9499" height="4.315"/><rect x="9.8204" y="11.0628" transform="matrix(0.6986 0.7155 -0.7155 0.6986 12.2152 -4.924)" width="4.2643" height="1.9505"/><rect x="6.8811" y="18.3922" width="4.214" height="1.9499"/><rect x="10.9773" y="24.5637" transform="matrix(0.7156 0.6985 -0.6985 0.7156 22.0467 -0.7567)" width="1.9505" height="4.2643"/><rect x="18.1332" y="27.5739" width="1.9499" height="4.315"/><rect x="24.1316" y="25.7206" transform="matrix(0.6986 0.7155 -0.7155 0.6986 27.0156 -10.7459)" width="4.2643" height="1.9505"/><rect x="27.1211" y="18.3922" width="4.214" height="1.9499"/><rect x="25.2885" y="9.9059" transform="matrix(-0.7156 -0.6985 0.6985 -0.7156 36.6492 38.998)" width="1.9505" height="4.2643"/><path d="M24.8751,19.3672c0-3.1801-2.5869-5.7674-5.7669-5.7674s-5.7669,2.5874-5.7669,5.7674s2.5869,5.7669,5.7669,5.7669   S24.8751,22.5473,24.8751,19.3672z M19.1082,23.1842c-2.1051,0-3.817-1.7124-3.817-3.817c0-2.1051,1.7119-3.8175,3.817-3.8175   s3.817,1.7124,3.817,3.8175C22.9252,21.4718,21.2133,23.1842,19.1082,23.1842z"/><rect x="75.5799" y="23.4341" width="2.4307" height="1.9499"/><path d="M89.7949,24.4091c0-3.1283-2.9908-5.1814-5.7936-4.4011c-0.8693-3.0568-3.6599-5.23-6.9495-5.23   c-3.201,0-6.0021,2.1351-6.9133,5.1162c-2.7464-0.4081-5.2452,1.7026-5.2452,4.5149v0.975h8.6119v-1.9499h-6.4791   c0.5031-1.2641,2.0029-2.0395,3.4676-1.4334l1.1597,0.4789l0.178-1.2416c0.3685-2.5712,2.6126-4.5102,5.2204-4.5102   c2.7278,0,4.9862,2.0461,5.2528,4.7591l0.1571,1.5962l1.3444-0.874c1.4381-0.9334,3.2809-0.2205,3.8551,1.2249h-7.8549v1.9499   h9.9886V24.4091z"/><path d="M79.5244,55.0567c0.0333-0.0981,0.8455-2.3922,3.0468-1.8304l0.478-1.8909c-1.6386-0.4132-2.8925,0.0571-3.7904,0.805   c-0.4361-1.083-1.3187-2.0946-2.9544-2.5079l-0.478,1.8909c2.1413,0.5403,1.8528,2.8064,1.8138,3.0577L79.5244,55.0567z"/><path d="M19.7385,49.442l-0.478-1.8909c-1.6357,0.4132-2.5183,1.4244-2.9544,2.5074c-0.8969-0.7465-2.1527-1.2182-3.7904-0.805   l0.478,1.8909c2.1318-0.5418,2.962,1.5905,3.0468,1.8304l1.8852-0.4703C17.8856,52.2479,17.5972,49.9819,19.7385,49.442z"/><path d="M74.5782,43.4342l-0.478-1.8909c-1.6357,0.4127-2.5183,1.4244-2.9544,2.5069c-0.8969-0.746-2.1508-1.2163-3.7913-0.8041   l0.478,1.8909c2.1337-0.5398,2.963,1.59,3.0477,1.83l1.8842-0.4761C72.7473,46.3891,72.3722,43.9907,74.5782,43.4342z"/><path d="M10.4925,55.687l-0.478-1.8909c-1.6357,0.4132-2.5183,1.4239-2.9535,2.5069c-0.8969-0.746-2.1565-1.2178-3.7913-0.8045   l0.478,1.8909c2.1356-0.5384,2.963,1.5905,3.0477,1.8304l1.8842-0.4761C8.6625,58.6418,8.2874,56.243,10.4925,55.687z"/></g><text x="0" y="111" fill="#000000" font-size="5px" font-weight="bold" font-family="'Helvetica Neue', Helvetica, Arial-Unicode, Arial, Sans-serif"> </text><text x="0" y="116" fill="#000000" font-size="5px" font-weight="bold" font-family="'Helvetica Neue', Helvetica, Arial-Unicode, Arial, Sans-serif"></text></svg>