<svg xmlns="http://www.w3.org/2000/svg" version="1.1" viewBox="-5.0 -10.0 110.0 135.0">
 <path d="m71.32 10.988c-0.089843-0.058593-1.6602-1.2109-4.0391-1.2188-1.1406 0-2.4609 0.28125-3.8008 1.0781-0.89062 0.53125-1.7891 1.2891-2.6602 2.3086-0.73047-2.2695-1.8516-3.7812-3.1016-4.7188-1.6016-1.2109-3.3008-1.4609-4.4102-1.4609-0.78125 0-1.2812 0.12109-1.3398 0.12891-0.53906 0.12891-0.87109 0.67188-0.73828 1.1992 0.12891 0.53906 0.67188 0.87109 1.1992 0.73828 0 0 0.37891-0.078125 0.87891-0.078125 0.82812 0 2.0508 0.17969 3.1992 1.0508 1.1406 0.87109 2.2891 2.4609 2.8711 5.5898 0.070313 0.39844 0.37891 0.71875 0.78906 0.80078 0.39844 0.078125 0.80859-0.089844 1.0391-0.44141 1.1406-1.7617 2.2812-2.8086 3.3008-3.4219 1.0312-0.60938 1.9609-0.80078 2.7812-0.80078 0.85156 0 1.5898 0.21875 2.1016 0.44141 0.26172 0.10938 0.46094 0.21875 0.58984 0.28906l0.14062 0.089844 0.03125 0.019531c0.44922 0.32031 1.0703 0.21875 1.3906-0.21875 0.32031-0.44922 0.23047-1.0703-0.21875-1.3984z"/>
 <path d="m66.91 28.57c-0.46094 0.30078-0.58984 0.92969-0.28125 1.3906 0.30078 0.46094 0.92188 0.57812 1.3789 0.28125 0 0 0.070313-0.039063 0.19922-0.10938 0.39062-0.21094 1.3281-0.60937 2.4805-0.60937 0.83984 0 1.7891 0.19922 2.8203 0.83984 1.0391 0.64062 2.1719 1.75 3.2891 3.6484 0.21094 0.35156 0.60938 0.53906 1.0195 0.48047 0.41016-0.058594 0.73047-0.37109 0.82031-0.76953 0.67969-2.9492 1.8203-4.4883 2.9414-5.3398 1.1211-0.83984 2.3008-1.0312 3.1602-1.0391 0.35938 0 0.64844 0.03125 0.85156 0.070312 0.10156 0.019532 0.17969 0.03125 0.21875 0.039063h0.050781v0.011719c0.53125 0.14844 1.0781-0.16016 1.2383-0.69141 0.14844-0.53125-0.16016-1.0781-0.69141-1.2383-0.058594-0.019531-0.71094-0.19922-1.6719-0.19922-1.1484 0-2.8086 0.26953-4.3711 1.4414-1.1992 0.89844-2.2891 2.3203-3.0703 4.4102-0.89062-1.1289-1.8086-1.9609-2.7383-2.5391-1.3594-0.85156-2.7188-1.1406-3.8789-1.1406-2.2109 0-3.6914 0.98828-3.7812 1.0508z"/>
 <path d="m86.141 80.449h-40.102v-18.129h1.3203c6.4492 0 11.691-5.2305 11.691-11.691 0-4.0898-2.1016-7.6797-5.2812-9.7695 0.53125-1.1289 0.82812-2.3906 0.82812-3.7188 0-4.9102-3.9805-8.8906-8.8906-8.8906-4.3516 0-7.9414 3.1211-8.7188 7.2383-0.62891-0.14062-1.2812-0.23047-1.9492-0.23047-4.9102 0-8.8906 3.9805-8.8906 8.8906 0 1.3086 0.30078 2.5508 0.80859 3.6719-1.2383 1.5312-2 3.4805-2 5.6016 0 4.9102 3.9805 8.8906 8.8906 8.8906h4.1094v18.129h-23.785c-0.55078 0-1 0.44922-1 1 0 0.55078 0.44922 1 1 1h71.969c0.55078 0 1-0.44922 1-1 0-0.55078-0.44922-1-1-1zm-57.16-22.148c-1.25-1.25-2.0195-2.9688-2.0195-4.8789 0-1.8398 0.71875-3.5117 1.9102-4.75 0.30078-0.32031 0.35938-0.78906 0.14844-1.1797-0.55078-0.98828-0.87109-2.1289-0.87109-3.3516 0-1.9102 0.76953-3.6211 2.0195-4.8789 1.25-1.25 2.9688-2.0195 4.8789-2.0195 0.85938 0 1.6797 0.16016 2.4414 0.44922 0.30078 0.10938 0.64062 0.078125 0.89844-0.10156 0.26172-0.17969 0.44141-0.46875 0.44922-0.78906 0.17187-3.6602 3.1797-6.5781 6.8789-6.5703 1.9102 0 3.6211 0.76953 4.8789 2.0195 1.25 1.25 2.0195 2.9688 2.0195 4.8789 0 1.3086-0.37109 2.5195-1.0117 3.5703-0.14062 0.23047-0.17969 0.51172-0.10937 0.78125 0.070312 0.26953 0.25 0.48828 0.48828 0.62109 3.0195 1.6406 5.0703 4.8398 5.0703 8.5195 0 2.6797-1.0781 5.0898-2.8398 6.8516-1.7617 1.75-4.1719 2.8398-6.8516 2.8398h-13.512c-1.9102 0-3.6211-0.76953-4.8789-2.0195zm10.98 4.0195h4.0781v18.129h-4.0781z"/>
 <path d="m86.141 86.262h-71.969c-0.55078 0-1 0.44922-1 1s0.44922 1 1 1h71.969c0.55078 0 1-0.44922 1-1s-0.44922-1-1-1z"/>
<text x="0.0" y="117.5" font-size="5.0" font-weight="bold" font-family="Arbeit Regular, Helvetica, Arial-Unicode, Arial, Sans-serif" fill="#000000"> Savannah Vize</text><text x="0.0" y="122.5" font-size="5.0" font-weight="bold" font-family="Arbeit Regular, Helvetica, Arial-Unicode, Arial, Sans-serif" fill="#000000">from Noun Project</text></svg>