<svg xmlns="http://www.w3.org/2000/svg" version="1.1" viewBox="-5.0 -10.0 110.0 135.0">
 <path d="m16.672 31.234c3.4375 0 6.4844-1.7656 8.25-4.4375 3.5156 6.0938 12.953 6.2344 16.672 0.26562 3.5156 6.0938 12.953 6.2344 16.672 0.26562 3.5156 6.0938 12.953 6.2344 16.672 0.26562 5.0938 8.3906 18.312 4.7656 18.312-5.1875-0.03125-2.0469-3.0938-2.0469-3.125 0-0.3125 8.9844-13.297 8.9219-13.547-0.046875 0.23438-2.1875-3.0469-2.4062-3.1094-0.21875-0.29688 8.9844-13.297 8.9219-13.547-0.046875 0.23438-2.1875-3.0469-2.4062-3.1094-0.21875-0.29688 8.9844-13.297 8.9219-13.547-0.046875 0.23438-2.1875-3.0469-2.4062-3.1094-0.21875-0.29688 8.9844-13.297 8.9219-13.547-0.046875 0.23438-2.1875-3.0469-2.4062-3.1094-0.21875 0 3.7344-3.0312 6.7656-6.7656 6.7656s-6.7656-3.0312-6.7656-6.7656c0-0.85938-0.70312-1.5625-1.5625-1.5625s-1.5625 0.70312-1.5625 1.5625c0 5.4531 4.4375 9.8906 9.8906 9.8906z"/>
 <path d="m33.328 32.094c-0.85938 0-1.5625 0.70312-1.5625 1.5625-0.28125 8.9531-13.266 8.9375-13.547 0-0.03125-2.0469-3.0938-2.0625-3.125 0 0 9.7812 12.891 13.531 18.141 5.4531 3.5156 6.0938 12.953 6.2344 16.672 0.26562 3.5156 6.0938 12.953 6.2344 16.672 0.26562 5.0938 8.3906 18.312 4.7656 18.312-5.1875-0.03125-2.0469-3.0938-2.0469-3.125 0-0.3125 8.9844-13.297 8.9219-13.547-0.046875 0.23438-2.1875-3.0469-2.4062-3.1094-0.21875-0.29688 8.9844-13.297 8.9219-13.547-0.046875 0.23438-2.1875-3.0469-2.4062-3.1094-0.21875-0.29688 8.9844-13.297 8.9219-13.547-0.046875 0.125-0.9375-0.60938-1.7812-1.5469-1.7812z"/>
 <path d="m91.672 45.5c-0.85938 0-1.5625 0.70312-1.5625 1.5625-0.3125 8.9844-13.297 8.9219-13.547-0.046875 0.23438-2.1875-3.0469-2.4062-3.1094-0.21875-0.29688 8.9844-13.297 8.9219-13.547-0.046875 0.23438-2.1875-3.0469-2.4062-3.1094-0.21875-0.29688 8.9844-13.297 8.9219-13.547-0.046875 0.23438-2.1875-3.0469-2.4062-3.1094-0.21875-0.29688 8.9844-13.297 8.9219-13.547-0.046875 0.21875-2.1875-3.0469-2.4062-3.1094-0.21875-0.28125 8.9531-13.266 8.9375-13.547 0-0.03125-2.0469-3.0938-2.0625-3.125 0 0 9.7812 12.891 13.531 18.141 5.4531 3.5156 6.0938 12.953 6.2344 16.672 0.26562 3.5156 6.0938 12.953 6.2344 16.672 0.26562 3.5156 6.0938 12.953 6.2344 16.672 0.26562 5.0938 8.3906 18.312 4.7656 18.312-5.1875 0-0.85938-0.70312-1.5625-1.5625-1.5625z"/>
 <path d="m38.297 64.078s-0.14062-0.03125-0.21875-0.046875c-3.8281-0.71875-8.5469-0.25-13.922 3.0625-1.6094-2.5469-4.4531-5.0625-6.8906-4.0625-1.375 0.6875-1.2812 2.0469-1.1406 3.9375 0.078125 1.0625 0.17188 2.5312 0.17188 4.6094 0 2.0156-0.09375 3.4375-0.17188 4.4844-0.125 1.875-0.21875 3.2188 1.1406 3.9062 2.7812 1.0156 5.5469-1.7969 7.1406-4.4531 14.562 8.7656 24.266-3.1875 24.359-3.3125 0.45312-0.5625 0.45312-1.375 0-1.9375-0.0625-0.078125-3.9531-4.8594-10.469-6.1875zm-13.734 7.8281c-0.84375-0.60938-2.1406-0.14062-2.3906 0.85938-0.51562 1.8281-1.9688 3.2812-2.9688 3.9375 0.25-2.3906 0.25-8.0469 0-10.406 0.92188 0.60938 2.2344 1.8594 2.8438 3.6094 0.15625 0.46875 0.53125 0.82812 1 0.96875s0.96875 0.078125 1.375-0.20312c4.3438-3.0469 8.1562-3.9375 11.359-3.7656-0.67188 2.0312-1.3125 5.3281-0.09375 8.6875-3.1406 0.14062-6.8594-0.75-11.109-3.6875zm14.266 3.1875c-1.3125-2.9531-0.53125-6.0625 0.0625-7.6562 3.1094 0.90625 5.3594 2.6875 6.5156 3.8125-1.1562 1.1406-3.4219 2.9531-6.5781 3.8438z"/>
 <path d="m84.656 66.688c0-2.0156 0.09375-3.4375 0.17188-4.4844 0.125-1.875 0.21875-3.2188-1.1406-3.9062-2.5625-1.0469-5.6406 1.7812-7.1406 4.4531-14.547-8.7812-24.266 3.1875-24.359 3.3125-0.45312 0.5625-0.45312 1.375 0 1.9375 0.0625 0.078125 3.8594 4.75 10.25 6.1406 0.17188 0.0625 0.34375 0.10938 0.51562 0.09375 3.8125 0.70312 8.5156 0.21875 13.844-3.0781 1.6875 2.5312 4.25 5.0469 6.8906 4.0625 1.3594-0.6875 1.2812-2.0469 1.1406-3.9375-0.078125-1.0625-0.17188-2.5312-0.17188-4.5938zm-22.562-3.4844c1.2969 2.9531 0.51562 6.0469-0.078125 7.6406-3.1094-0.89062-5.3438-2.6875-6.5-3.8125 1.1719-1.1406 3.4375-2.9375 6.5781-3.8281zm16.781 5.1562c-0.3125-0.95312-1.5625-1.3594-2.375-0.76562-4.3438 3.0469-8.1562 3.9375-11.359 3.7656 0.67188-2.0312 1.3125-5.3125 0.10938-8.6562 3.1406-0.14062 6.875 0.73438 11.094 3.6719 0.84375 0.60938 2.1406 0.14062 2.3906-0.85938 0.51562-1.8281 1.9688-3.2812 2.9688-3.9375-0.25 2.3906-0.25 8.0469 0 10.406-0.92188-0.60938-2.2344-1.8594-2.8438-3.6094z"/>
<text x="0.0" y="117.5" font-size="5.0" font-weight="bold" font-family="Arbeit Regular, Helvetica, Arial-Unicode, Arial, Sans-serif" fill="#000000"> Alum Design</text><text x="0.0" y="122.5" font-size="5.0" font-weight="bold" font-family="Arbeit Regular, Helvetica, Arial-Unicode, Arial, Sans-serif" fill="#000000">from Noun Project</text></svg>