<svg xmlns="http://www.w3.org/2000/svg" version="1.1" viewBox="-5.0 -10.0 110.0 135.0">
 <path d="m40.277 65.887c-5.668 4.0547-13.066 4.7852-19.418 1.9102-6.3516-2.8711-10.688-8.9102-11.383-15.848-0.69531-6.9336 2.3555-13.715 8.0078-17.793 5.6562-4.0742 13.055-4.8281 19.414-1.9805l27.832 11.59-1.2773 0.54297c-0.38281 0.16406-0.68359 0.46875-0.83984 0.85156-0.15625 0.38672-0.15234 0.81641 0.011719 1.1992 0.33594 0.79297 1.2539 1.1641 2.0469 0.82422l4.6875-1.9883c0.38281-0.16016 0.68359-0.46875 0.83984-0.85156s0.15234-0.81641-0.011719-1.1953l-1.9883-4.6875c-0.33594-0.79688-1.2539-1.168-2.0508-0.82813-0.79297 0.33594-1.1641 1.2539-0.82813 2.0469l0.48828 1.1484-27.672-11.523v0.003906c-7.3789-3.2891-15.953-2.3984-22.5 2.3359-6.5469 4.7383-10.074 12.602-9.2617 20.641 0.81641 8.0352 5.8477 15.035 13.211 18.359 7.3633 3.3281 15.941 2.4844 22.512-2.2188 0.70312-0.5 0.86328-1.4766 0.35938-2.1797-0.5-0.69922-1.4766-0.86328-2.1797-0.35938z"/>
 <path d="m71.094 27.344c-4.7305-0.011719-9.3477 1.4688-13.191 4.2305-0.70312 0.5-0.86328 1.4766-0.35938 2.1797 0.5 0.69922 1.4766 0.86328 2.1797 0.35938 5.668-4.0547 13.066-4.7852 19.418-1.9102 6.3516 2.8711 10.688 8.9102 11.383 15.848 0.69531 6.9336-2.3555 13.715-8.0078 17.793-5.6562 4.0742-13.055 4.8281-19.414 1.9805l-27.832-11.59 1.2773-0.54297c0.79688-0.33594 1.1641-1.2539 0.82812-2.0508-0.33594-0.79297-1.2539-1.1641-2.0469-0.82422l-4.6875 1.9883c-0.38281 0.16016-0.68359 0.46875-0.83984 0.85156s-0.15234 0.81641 0.011719 1.1953l1.9883 4.6875c0.33594 0.79688 1.2539 1.168 2.0508 0.82813 0.37891-0.16016 0.68359-0.46875 0.83594-0.85156 0.15625-0.38281 0.15234-0.81641-0.007812-1.1953l-0.48828-1.1484 27.672 11.523v-0.003906c6.2422 2.7852 13.41 2.6016 19.504-0.49609 6.0938-3.1016 10.461-8.7891 11.887-15.477 1.4219-6.6875-0.25-13.66-4.5508-18.973s-10.773-8.4023-17.609-8.4023z"/>
<text x="0.0" y="117.5" font-size="5.0" font-weight="bold" font-family="Arbeit Regular, Helvetica, Arial-Unicode, Arial, Sans-serif" fill="#000000"> muhamad afiffudin</text><text x="0.0" y="122.5" font-size="5.0" font-weight="bold" font-family="Arbeit Regular, Helvetica, Arial-Unicode, Arial, Sans-serif" fill="#000000">from Noun Project</text></svg>