<svg xmlns="http://www.w3.org/2000/svg" xmlns:xlink="http://www.w3.org/1999/xlink" version="1.1" x="0px" y="0px" viewBox="-25.6 -51.2 563.2 691.2" style="enable-background:new 0 0 512 512;" xml:space="preserve"><path d="M83.6,403.4c-3.3,0-6-2.7-6-6c0-3.3,2.7-6,6-6h75.6l12.2-45.4c1.6-5.9,10-5.9,11.6,0.1l20.9,78.1l30.2-112.6  c1.6-5.9,10-5.9,11.6,0.1l29.6,110.4l25.7-96c1.6-5.9,10-5.9,11.6,0.1l15.9,59.4h106.1c3.3,0,6,2.7,6,6c0,3.3-2.7,6-6,6H323.9l0,0  c-2.6,0-5.1-1.8-5.8-4.5l-11.3-42.3l-25.7,96c-1.6,6-10,6-11.6,0.1l-29.6-110.5l-30.1,112.5c-1.6,6-10,6-11.6,0.1l-20.9-78.2  l-7.5,27.9c-0.6,2.7-3,4.8-5.9,4.8H83.6z M371.8,181.6c21.2-16.9,49.3-20.9,74,3.8c21.6,21.6,21.6,56.7,0,78.3L376,333.4  c-2.3,2.4-6.1,2.4-8.5,0l-69.8-69.8c-21.6-21.6-21.6-56.6,0-78.3C317.9,165.2,350,163.8,371.8,181.6L371.8,181.6z M407.7,179.9  c-16.8,0-29.7,12-31.7,14c-2.3,2.3-6.1,2.3-8.5,0c-16.9-16.9-44.4-16.9-61.3,0s-16.9,44.4,0,61.3l65.5,65.5l65.5-65.5  c16.9-16.9,16.9-44.4,0-61.3C426.8,183.4,416.7,179.9,407.7,179.9L407.7,179.9z M119.3,188.7c20.1,25.8,59.2,25.8,79.3,0H119.3z   M126.1,210.6c-9.6-6-17.5-14.5-22.7-24.9c-2.5-4.5,0.9-9.1,5.2-9.1h100.9v0c4.4,0,7.4,4.6,5.4,8.6  C198.4,218.2,157.3,230,126.1,210.6L126.1,210.6z M125.9,121.2c0-3.3,2.7-6,6-6c3.3,0,6,2.7,6,6v14.3c0,3.3-2.7,6-6,6  c-3.3,0-6-2.7-6-6V121.2z M179.9,121.2c0-3.3,2.7-6,6-6s6,2.7,6,6v14.3c0,3.3-2.7,6-6,6s-6-2.7-6-6V121.2z M158.9,58.7  c60.2,0,108.9,48.8,108.9,108.9c0,60.2-48.8,108.9-108.9,108.9S50,227.8,50,167.6C50,107.5,98.8,58.7,158.9,58.7L158.9,58.7z   M227.4,99.1c-37.9-37.9-99.2-37.9-137.1,0c-37.8,37.8-37.8,99.2,0,137c37.8,37.8,99.2,37.8,137.1,0  C265.3,198.3,265.3,136.9,227.4,99.1L227.4,99.1z"/><text x="0.0" y="601.6" font-size="25.6" font-weight="bold" font-family="Arbeit Regular, Helvetica, Arial-Unicode, Arial, Sans-serif" fill="#000000"> Afianroc</text><text x="0.0" y="627.2" font-size="25.6" font-weight="bold" font-family="Arbeit Regular, Helvetica, Arial-Unicode, Arial, Sans-serif" fill="#000000">from Noun Project</text></svg>