<svg xmlns="http://www.w3.org/2000/svg" xmlns:xlink="http://www.w3.org/1999/xlink" version="1.1" x="0px" y="0px" viewBox="0 0 100 125" style="enable-background:new 0 0 100 100;" xml:space="preserve"><path d="M29.65,75.15c-0.75,0-1.37-0.61-1.37-1.37c0-0.41,0.19-0.8,0.51-1.06c4.89-3.95,11.15-5.79,17.4-5.09l15.86,1.73  c1.64,0.18,3.29-0.3,4.58-1.33l26.74-21.47c2-1.6,2.32-4.53,0.71-6.52c-1.6-1.99-4.5-2.31-6.49-0.73L68.99,54  c-0.56,0.5-1.43,0.45-1.93-0.11c-0.26-0.3-0.38-0.69-0.33-1.08v-0.02c0.05-0.35,0.23-0.67,0.51-0.89l18.66-14.75  c3.18-2.54,7.82-2.01,10.36,1.17s2.01,7.82-1.17,10.36l0,0L68.34,70.16c-1.86,1.48-4.23,2.17-6.59,1.91L45.9,70.34  c-5.52-0.62-11.07,1-15.39,4.5C30.27,75.04,29.97,75.15,29.65,75.15L29.65,75.15z M63.33,57.48c-0.24,0-0.49-0.01-0.73-0.04  l-16.17-1.76c-0.75-0.09-1.28-0.78-1.19-1.53c0.09-0.73,0.75-1.26,1.48-1.19l16.18,1.76c1.63,0.17,3.2-0.71,3.89-2.2l0.03-0.09  c0.15-0.35,0.25-0.72,0.29-1.09c0.22-2.1-1.29-3.98-3.39-4.21l-26.15-2.85c-2.85-0.31-5.71,0.52-7.94,2.31l-10.57,8.48  c-0.59,0.47-1.45,0.38-1.92-0.21c-0.47-0.59-0.38-1.45,0.21-1.92l10.57-8.48c2.8-2.25,6.38-3.29,9.94-2.9l26.15,2.86  c3.59,0.37,6.19,3.58,5.82,7.17c-0.06,0.62-0.22,1.24-0.46,1.82c-0.01,0.04-0.03,0.09-0.05,0.13  C68.31,55.93,65.94,57.48,63.33,57.48L63.33,57.48z M22.99,85.79c-0.42,0-0.82-0.2-1.08-0.53L2.43,60.09  c-0.46-0.6-0.35-1.45,0.24-1.91L15,48.63c0.6-0.46,1.45-0.36,1.92,0.24c0.04,0.05,0.08,0.11,0.11,0.17l15.64,28.15  c0.33,0.59,0.18,1.33-0.36,1.74l-8.48,6.56C23.59,85.69,23.3,85.79,22.99,85.79L22.99,85.79z M5.42,59.5l17.81,23l6.47-5.01  l-14.3-25.72L5.42,59.5z M42.94,44.86c-0.33,0-0.66-0.12-0.9-0.35c-5.71-4.53-9.75-10.82-11.5-17.9c-0.59-2.5-0.88-5.07-0.86-7.64  l-0.02-3.4c0-0.75,0.61-1.37,1.37-1.37h63.36c0.75,0,1.37,0.61,1.37,1.37l-0.02,3.39c0.02,2.68-0.3,5.35-0.94,7.94  c-1.04,4.01-2.82,7.79-5.27,11.14c-0.42,0.63-1.27,0.79-1.9,0.37c-0.37-0.25-0.6-0.66-0.6-1.11c0-0.29,0.09-0.58,0.26-0.82  c2.26-3.08,3.91-6.56,4.87-10.26c0.58-2.38,0.87-4.83,0.85-7.28l0.01-2.02H32.4l0.01,2.02c-0.02,2.35,0.25,4.7,0.78,7  c1.61,6.51,5.34,12.3,10.6,16.46c0.04,0.03,0.08,0.07,0.11,0.1c0.54,0.53,0.55,1.39,0.02,1.93C43.67,44.71,43.32,44.86,42.94,44.86  L42.94,44.86z M73.91,49.75h-0.02c-0.75,0-1.36-0.62-1.36-1.37c0-0.75,0.62-1.36,1.37-1.36s1.36,0.62,1.36,1.37  C75.26,49.14,74.66,49.74,73.91,49.75z M94.04,25.08H31.38c-0.75,0-1.37-0.61-1.37-1.37s0.61-1.37,1.37-1.37h62.66  c0.75,0,1.37,0.61,1.37,1.37S94.79,25.08,94.04,25.08z"/><text x="0" y="115" fill="#000000" font-size="5px" font-weight="bold" font-family="'Helvetica Neue', Helvetica, Arial-Unicode, Arial, Sans-serif"> Keval</text><text x="0" y="120" fill="#000000" font-size="5px" font-weight="bold" font-family="'Helvetica Neue', Helvetica, Arial-Unicode, Arial, Sans-serif"></text></svg>