<svg xmlns="http://www.w3.org/2000/svg" version="1.1" viewBox="-5.0 -10.0 110.0 135.0">
 <path d="m45.059 65.871v4.7891h-2.1914c-0.87109 0-1.5781 0.71094-1.5781 1.5781v1.6211c0 0.87109 0.71094 1.5781 1.5781 1.5781h2.1914v3c0 0.87109 0.71094 1.5781 1.5781 1.5781h1.6211c0.87109 0 1.5781-0.71094 1.5781-1.5781v-3h2.1914c0.87109 0 1.5781-0.71094 1.5781-1.5781v-1.6211c0-0.87109-0.71094-1.5781-1.5781-1.5781h-2.1914v-4.8789c3.3516-0.48828 6.4883-1.8711 9.1094-4l0.42969-0.35156-3.3906-3.3789-0.33984 0.26953c-5.5781 4.3008-13.551 3.7812-18.539-1.1992-4.9805-4.9805-5.5-12.949-1.1992-18.539l0.26953-0.33984-3.3789-3.3789-0.35156 0.42188c-6.1211 7.5117-5.5586 18.34 1.3008 25.199 3.0312 3.0312 7.0391 4.9297 11.328 5.3906zm-12.199-29.531 1.9805 1.9805c-4.3203 5.9492-3.6797 14.262 1.5508 19.488 5.2305 5.2305 13.531 5.8711 19.488 1.5508l1.9883 1.9883c-2.5 1.8984-5.4609 3.1094-8.6094 3.5l-0.42969 0.050782v6.7383h3.1797c0.32031 0 0.57813 0.26172 0.57813 0.57812v1.6211c0 0.32031-0.26172 0.58984-0.57813 0.58984h-3.1797v3.9883c0 0.32031-0.26172 0.58984-0.57812 0.58984h-1.6211c-0.32031 0-0.57812-0.26172-0.57812-0.58984v-3.9883h-3.1797c-0.32031 0-0.57812-0.26172-0.57812-0.58984v-1.6211c0-0.32031 0.26172-0.57812 0.57812-0.57812h3.1797v-6.6914l-0.46094-0.039062c-4.2305-0.33984-8.1914-2.1719-11.16-5.1406-6.3711-6.3711-7-16.352-1.5703-23.441z"/>
 <path d="m34.738 32.879 3.3906 3.3789 0.33984-0.26953c5.5781-4.3008 13.551-3.7812 18.531 1.1992s5.5 12.949 1.1992 18.531l-0.26953 0.33984 3.3906 3.3906 0.35156-0.42969c5.9492-7.3086 5.5586-17.852-0.82812-24.711l5.6016-5.6016 0.82813 0.82812c0.39844 0.39844 0.96875 0.55078 1.5195 0.41016 0.55078-0.14844 0.96875-0.55859 1.1094-1.1094l1.8398-6.8789c0.14844-0.55078 0-1.1211-0.41016-1.5195-0.39844-0.39844-0.96875-0.55859-1.5195-0.41016l-6.8789 1.8398c-0.55078 0.14844-0.96875 0.55859-1.1094 1.1094-0.14844 0.55078 0 1.1211 0.41016 1.5195l0.82812 0.82812-5.8984 5.8984c-6.7695-4.3086-15.762-3.8086-22 1.2617l-0.42969 0.35156zm22.219-0.55859 0.33984 0.23047 7.1797-7.1797-1.5312-1.5312c-0.21875-0.21875-0.17969-0.46875-0.14844-0.57031 0.03125-0.10156 0.12109-0.32812 0.41016-0.41016l6.8789-1.8398c0.28906-0.078125 0.48828 0.078125 0.55859 0.14844 0.070313 0.070312 0.23047 0.26953 0.14844 0.57031l-1.8398 6.8789c-0.078125 0.28906-0.32031 0.39062-0.41016 0.41016-0.10156 0.03125-0.35156 0.058594-0.57031-0.14844l-1.5312-1.5312-6.9883 6.9883 0.33984 0.35156c6.2383 6.3594 6.8203 16.281 1.4492 23.309l-2-2c4.3086-5.9492 3.6797-14.25-1.5508-19.48-5.2305-5.2305-13.531-5.8594-19.48-1.5508l-1.9883-1.9883c5.9883-4.5586 14.441-4.8516 20.73-0.64844z"/>
<text x="0.0" y="117.5" font-size="5.0" font-weight="bold" font-family="Arbeit Regular, Helvetica, Arial-Unicode, Arial, Sans-serif" fill="#000000"> Tuah Firmansyah</text><text x="0.0" y="122.5" font-size="5.0" font-weight="bold" font-family="Arbeit Regular, Helvetica, Arial-Unicode, Arial, Sans-serif" fill="#000000">from Noun Project</text></svg>