<svg xmlns="http://www.w3.org/2000/svg" version="1.1" viewBox="-5.0 -10.0 110.0 135.0">
 <path d="m24.184 28.363c1.4062 0 2.6758-0.57031 3.5977-1.4883 0.92188-0.92188 1.4883-2.1914 1.4883-3.5977 0-1.4023-0.57031-2.6758-1.4883-3.5977-0.92188-0.92188-2.1914-1.4883-3.5977-1.4883s-2.6758 0.57031-3.5977 1.4883c-0.91797 0.92187-1.4883 2.1914-1.4883 3.5977s0.57031 2.6758 1.4883 3.5977c0.92187 0.91797 2.1953 1.4883 3.5977 1.4883zm30.164 13.762c-0.63281 0-1.1445-0.51172-1.1445-1.1445 0-0.63281 0.51172-1.1445 1.1445-1.1445h17.699c0.63281 0 1.1445 0.51172 1.1445 1.1445 0 0.63281-0.51172 1.1445-1.1445 1.1445zm5.9219-7.1836c-0.63281 0-1.1445-0.51172-1.1445-1.1445s0.51172-1.1445 1.1445-1.1445h11.777c0.63281 0 1.1445 0.51172 1.1445 1.1445s-0.51172 1.1445-1.1445 1.1445zm-8.3164-7.1797c-0.63281 0-1.1445-0.51172-1.1445-1.1445 0-0.63281 0.51172-1.1445 1.1445-1.1445h20.094c0.63281 0 1.1445 0.51172 1.1445 1.1445 0 0.63281-0.51172 1.1445-1.1445 1.1445zm0-7.1836c-0.63281 0-1.1445-0.51172-1.1445-1.1445 0-0.63281 0.51172-1.1445 1.1445-1.1445h20.094c0.63281 0 1.1445 0.51172 1.1445 1.1445 0 0.63281-0.51172 1.1445-1.1445 1.1445zm25.625 67.164v1.6836c0 0.63281-0.51172 1.1445-1.1445 1.1445h-21.043c-0.63281 0-1.1445-0.51172-1.1445-1.1445v-1.6836h-18.152c-0.63281 0-1.1445-0.51172-1.1445-1.1445v-3.8477c0-4.3516 2.0547-7.4258 4.9492-9.2227 1.5742-0.97656 3.3984-1.5664 5.2656-1.7656 1.8555-0.19922 3.7695-0.011719 5.5352 0.55859 2.7969 0.90234 5.2344 2.7578 6.5469 5.5664 1.1172-1.1172 2.4727-1.957 3.9531-2.5234 1.4883-0.57031 3.1016-0.85547 4.7109-0.85547s3.2188 0.28516 4.7109 0.85547c1.4805 0.56641 2.8398 1.4062 3.9531 2.5234 1.3164-2.8086 3.75-4.6641 6.5469-5.5664 1.7656-0.57031 3.6797-0.75781 5.5352-0.55859 1.8711 0.19922 3.6914 0.78906 5.2656 1.7656 2.8945 1.7969 4.9492 4.875 4.9492 9.2227v3.8477c0 0.63281-0.51172 1.1445-1.1445 1.1445zm-23.328-2.2891c0.019531-2.1172 0.52344-3.9258 1.3711-5.4297-0.83984-2.8555-3.0312-4.6992-5.6172-5.5352-1.4609-0.47266-3.0508-0.625-4.5977-0.46094-1.5352 0.16406-3.0234 0.64453-4.3008 1.4375-2.2617 1.4062-3.8672 3.832-3.8672 7.2852v2.7031zm21.953-5.4297c0.85156 1.5039 1.3555 3.3125 1.3711 5.4297h17.012v-2.7031c0-3.4531-1.6055-5.8828-3.8672-7.2852-1.2773-0.79297-2.7656-1.2734-4.3008-1.4375-1.5469-0.16406-3.1367-0.011719-4.5977 0.46094-2.5859 0.83594-4.7773 2.6836-5.6172 5.5352zm-0.91406 8.2578v-2.7031c0-4.2109-2.4023-6.9062-5.4805-8.082-1.2266-0.46875-2.5586-0.70312-3.8984-0.70312s-2.6719 0.23438-3.8984 0.70312c-3.0781 1.1758-5.4805 3.8711-5.4805 8.082v2.7031zm-9.375-16.855c1.2695 0 2.4141-0.51172 3.2461-1.3438 0.83203-0.83203 1.3438-1.9766 1.3438-3.2461 0-1.2695-0.51172-2.4141-1.3438-3.2461-0.83203-0.83203-1.9766-1.3438-3.2461-1.3438-1.2695 0-2.4141 0.51172-3.2461 1.3438-0.83203 0.83203-1.3438 1.9766-1.3438 3.2461 0 1.2695 0.51172 2.4141 1.3438 3.2461 0.82812 0.83203 1.9766 1.3438 3.2461 1.3438zm4.8633 0.27344c1.2461-1.2461 2.0156-2.9648 2.0156-4.8633 0-1.8984-0.76953-3.6172-2.0156-4.8633s-2.9648-2.0156-4.8633-2.0156c-1.8984 0-3.6172 0.76953-4.8633 2.0156-1.2461 1.2461-2.0156 2.9648-2.0156 4.8633 0 1.8984 0.76953 3.6172 2.0156 4.8633 1.2461 1.2422 2.9648 2.0156 4.8633 2.0156 1.8984-0.003906 3.6172-0.77344 4.8633-2.0156zm-24.16-3.0977c1.2695 0 2.4141-0.51172 3.2461-1.3438 0.83203-0.83203 1.3438-1.9766 1.3438-3.2461s-0.51172-2.4141-1.3438-3.2461-1.9766-1.3438-3.2461-1.3438c-1.2695 0-2.4141 0.51172-3.2461 1.3438-0.83203 0.83203-1.3438 1.9766-1.3438 3.2461s0.51172 2.4141 1.3438 3.2461c0.82812 0.82813 1.9766 1.3438 3.2461 1.3438zm4.8633 0.26953c-1.2461 1.2461-2.9648 2.0156-4.8633 2.0156-1.8984 0-3.6172-0.76953-4.8633-2.0156s-2.0156-2.9648-2.0156-4.8633c0-1.8984 0.76953-3.6172 2.0156-4.8633 1.2461-1.2422 2.9648-2.0156 4.8633-2.0156 1.8984 0 3.6172 0.76953 4.8633 2.0156 1.2461 1.2461 2.0156 2.9648 2.0156 4.8633-0.003906 1.9023-0.77344 3.6211-2.0156 4.8633zm33.73-0.26953c1.2695 0 2.4141-0.51172 3.2461-1.3438 0.83203-0.83203 1.3438-1.9766 1.3438-3.2461s-0.51172-2.4141-1.3438-3.2461-1.9766-1.3438-3.2461-1.3438c-1.2695 0-2.4141 0.51172-3.2461 1.3438-0.83203 0.83203-1.3438 1.9766-1.3438 3.2461s0.51172 2.4141 1.3438 3.2461c0.82812 0.82813 1.9766 1.3438 3.2461 1.3438zm4.8633 0.26953c-1.2461 1.2461-2.9648 2.0156-4.8633 2.0156-1.8984 0-3.6172-0.76953-4.8633-2.0156s-2.0156-2.9648-2.0156-4.8633c0-1.8984 0.76953-3.6172 2.0156-4.8633 1.2461-1.2422 2.9648-2.0156 4.8633-2.0156 1.8984 0 3.6172 0.76953 4.8633 2.0156 1.2461 1.2461 2.0156 2.9648 2.0156 4.8633-0.003906 1.9023-0.77344 3.6211-2.0156 4.8633zm-41.055-30.148c-0.99609-0.42969-2.3086-0.50781-3.832-0.027344l-8.0117 2.5273c-0.59766-2.125-1.3164-3.7812-2.2773-5.1367-1.1602-1.6445-2.6367-2.8203-4.6211-3.8281-0.039063-0.019531-0.082032-0.039062-0.125-0.054687-2.5859-0.9375-5.1445-1.1602-7.6055-0.72656-2.5078 0.44141-4.9023 1.5625-7.125 3.3008-4.1992 3.2891-6.2695 6.668-8.7539 10.719-0.66406 1.0859-1.3633 2.2227-2.1094 3.3711-0.019532 0.023437-0.035156 0.050781-0.050782 0.074218-1.5352 2.418-1.6523 4.3359-1.0195 5.6406 0.30859 0.63672 0.78516 1.1211 1.3672 1.4492 0.54688 0.3125 1.1875 0.47656 1.8594 0.5 1.6875 0.050781 3.6445-0.84766 4.8125-2.7578l3.5703-5.8398v8.6914c0 0.63281 0.51172 1.1445 1.1445 1.1445h16.668c0.63281 0 1.1445-0.51172 1.1445-1.1445l-0.003907-6.625c2.7227-0.19922 7.1914-1.6758 10.926-2.9102 0.73438-0.24219 1.4492-0.48047 1.6289-0.53516 2.6289-0.85547 4.0078-2.3789 4.3984-3.8477 0.16797-0.62891 0.15625-1.2539-0.011718-1.8281-0.066407-0.22266-0.15234-0.43359-0.26172-0.63672l7.6562-8.3828c0.42578-0.46484 0.39062-1.1875-0.074219-1.6133-0.46484-0.42578-1.1875-0.39062-1.6133 0.074218zm-5.6211 10.535v3.3789c0 0.63281 0.51172 1.1445 1.1445 1.1445h34.918c0.63281 0 1.1445-0.51172 1.1445-1.1445l-0.003907-42.062c0-0.63281-0.51172-1.1445-1.1445-1.1445l-34.918 0.003906c-0.63281 0-1.1445 0.51172-1.1445 1.1445v26.324c0 0.63281 0.51172 1.1445 1.1445 1.1445 0.63281 0 1.1445-0.51172 1.1445-1.1445v-25.184h32.633v39.777h-32.633v-2.2383c0-0.63281-0.51172-1.1445-1.1445-1.1445-0.62891 0.003907-1.1406 0.51562-1.1406 1.1445zm-26.016 6.2305v-11.605c0-0.63281-0.51172-1.1445-1.1445-1.1445-0.44141 0-0.82422 0.25-1.0156 0.61719l-5.6445 9.2305c-0.70312 1.1523-1.8398 1.6953-2.8047 1.668-0.30078-0.007812-0.57422-0.078125-0.79688-0.20312-0.1875-0.10547-0.33984-0.26172-0.4375-0.46094-0.31641-0.65234-0.14844-1.7773 0.89453-3.4258 0.011718-0.019531 0.023437-0.035156 0.035156-0.054687 0.79688-1.2266 1.4844-2.3516 2.1445-3.4258 2.3672-3.8633 4.3398-7.082 8.2109-10.109 1.918-1.5039 3.9766-2.4688 6.1172-2.8438 2.0547-0.36328 4.1953-0.17969 6.3672 0.59766 1.6172 0.82812 2.8086 1.7773 3.7227 3.0742 0.95703 1.3555 1.6523 3.1211 2.2383 5.543 0.14844 0.61328 0.76172 0.98828 1.375 0.83984 0.023438-0.007812 0.050781-0.011718 0.074219-0.019531v0.003906l9.1562-2.8867c1.2422-0.39062 2.1484-0.24219 2.6211 0.17969 0.14844 0.13281 0.25391 0.28906 0.30078 0.45703 0.054687 0.17969 0.054687 0.39062-0.003906 0.61328-0.21094 0.80078-1.1055 1.6758-2.8984 2.2578-0.86328 0.28125-1.2422 0.40625-1.6367 0.53516-4.1914 1.3867-9.3711 3.0977-11.094 2.8164-0.03125-0.007813-0.058593-0.011719-0.089843-0.019532-0.007813-0.003906-0.019531-0.003906-0.023438-0.003906l-0.054687-0.011719v-0.003906c-0.56641-0.10547-1.0859-0.33984-1.5039-0.67969-0.39063-0.31641-0.69531-0.71484-0.86328-1.1797l-0.73828-2.043c-0.21094-0.58984-0.86328-0.89844-1.457-0.6875-0.58984 0.21094-0.89844 0.86328-0.6875 1.457l0.73828 2.043c0.31641 0.87891 0.87109 1.6211 1.5742 2.1914 0.5 0.40234 1.0781 0.71875 1.7031 0.92969v5.7578zm12.016-27c-1.3359 1.3359-3.1797 2.1602-5.2148 2.1602s-3.8789-0.82422-5.2148-2.1602c-1.3359-1.3359-2.1602-3.1797-2.1602-5.2148 0-2.0352 0.82422-3.8789 2.1602-5.2148 1.3359-1.3359 3.1797-2.1602 5.2148-2.1602s3.8789 0.82422 5.2148 2.1602c1.3359 1.3359 2.1602 3.1797 2.1602 5.2148 0 2.0391-0.82422 3.8828-2.1602 5.2148z" fill-rule="evenodd"/>
<text x="0.0" y="117.5" font-size="5.0" font-weight="bold" font-family="Arbeit Regular, Helvetica, Arial-Unicode, Arial, Sans-serif" fill="#000000"> Sugiman</text><text x="0.0" y="122.5" font-size="5.0" font-weight="bold" font-family="Arbeit Regular, Helvetica, Arial-Unicode, Arial, Sans-serif" fill="#000000">from Noun Project</text></svg>