<svg xmlns="http://www.w3.org/2000/svg" viewBox="0 0 100 125" x="0px" y="0px"><title>Artboard 100</title><g data-name="Layer 2"><path d="M83.35352,38.64648a.49982.49982,0,0,0-.707,0l-3.90039,3.90039a.49982.49982,0,0,0,0,.707l3.498,3.49609H74.75a.49971.49971,0,0,0-.5.5v5.5a.49971.49971,0,0,0,.5.5h7.49512l-3.499,3.499a.49982.49982,0,0,0,0,.707l3.90039,3.89746a.49982.49982,0,0,0,.707,0l11-11a.49982.49982,0,0,0,0-.707ZM83,60.293l-3.19336-3.19043,3.999-3.999a.5.5,0,0,0-.35352-.85352H75.25v-4.5h8.20215a.5.5,0,0,0,.35352-.85352l-3.999-3.99609L83,39.707,93.293,50Z"/><path d="M25.25,46.75H17.75586l3.498-3.49609a.49982.49982,0,0,0,0-.707l-3.90039-3.90039a.49982.49982,0,0,0-.707,0l-11,11a.49982.49982,0,0,0,0,.707l11,11a.49982.49982,0,0,0,.707,0l3.90039-3.89746a.49982.49982,0,0,0,0-.707l-3.499-3.499H25.25a.49971.49971,0,0,0,.5-.5v-5.5A.49971.49971,0,0,0,25.25,46.75Zm-.5,5.5H16.54785a.5.5,0,0,0-.35352.85352l3.999,3.999L17,60.293,6.707,50,17,39.707l3.19336,3.19336-3.999,3.99609a.5.5,0,0,0,.35352.85352H24.75Z"/><path d="M50.35352,5.64648a.49982.49982,0,0,0-.707,0l-11,11a.49982.49982,0,0,0,0,.707l3.90039,3.90039a.51466.51466,0,0,0,.707,0l3.49609-3.498V25.25a.49971.49971,0,0,0,.5.5h5.5a.49971.49971,0,0,0,.5-.5V17.75488l3.499,3.499a.51466.51466,0,0,0,.707,0l3.89746-3.90039a.49982.49982,0,0,0,0-.707Zm6.749,14.54688-3.999-3.999a.5.5,0,0,0-.85352.35352V24.75h-4.5V16.54785a.5.5,0,0,0-.85352-.35352l-3.99609,3.999L39.707,17,50,6.707,60.293,17Z"/><path d="M57.45605,78.74609a.49982.49982,0,0,0-.707,0l-3.499,3.499V74.75a.49971.49971,0,0,0-.5-.5h-5.5a.49971.49971,0,0,0-.5.5v7.49414l-3.49609-3.498a.49982.49982,0,0,0-.707,0l-3.90039,3.90039a.49982.49982,0,0,0,0,.707l11,11a.49982.49982,0,0,0,.707,0l11-11a.49982.49982,0,0,0,0-.707ZM50,93.293,39.707,83l3.19336-3.19336,3.99609,3.999a.5.5,0,0,0,.85352-.35352V75.25h4.5v8.20215a.5.5,0,0,0,.85352.35352l3.999-3.999L60.293,83Z"/><path d="M39.92676,56.18848l3.88965,3.88965a.49982.49982,0,0,0,.707,0L50,54.60156l5.47656,5.47656a.49982.49982,0,0,0,.707,0l3.88965-3.88965a.49982.49982,0,0,0,0-.707l-5.47656-5.47656,5.47656-5.48633a.49982.49982,0,0,0,0-.707l-3.88965-3.88965a.49982.49982,0,0,0-.707,0L50,45.39746l-5.47656-5.47559a.49982.49982,0,0,0-.707,0l-3.88965,3.88965a.49982.49982,0,0,0,0,.707l5.47656,5.48633-5.47656,5.47656A.49982.49982,0,0,0,39.92676,56.18848Zm6.53711-5.83008a.49982.49982,0,0,0,0-.707L40.9873,44.165l3.18262-3.18262L49.64648,46.458a.49982.49982,0,0,0,.707,0l5.47656-5.47559L59.0127,44.165l-5.47656,5.48633a.49982.49982,0,0,0,0,.707L59.0127,55.835l-3.18262,3.18262L50.35352,53.541a.49982.49982,0,0,0-.707,0l-5.47656,5.47656L40.9873,55.835Z"/></g><text x="0" y="115" fill="#000000" font-size="5px" font-weight="bold" font-family="'Helvetica Neue', Helvetica, Arial-Unicode, Arial, Sans-serif"> Fatahillah</text><text x="0" y="120" fill="#000000" font-size="5px" font-weight="bold" font-family="'Helvetica Neue', Helvetica, Arial-Unicode, Arial, Sans-serif"></text></svg>