<svg xmlns="http://www.w3.org/2000/svg" data-name="Layer 1" viewBox="0 0 100 125" x="0px" y="0px"><path d="m20.21191,30.91162c-3.92627,0-7.12012-3.19385-7.12012-7.12012,0-3.93066,3.19385-7.12891,7.12012-7.12891s7.12012,3.19824,7.12012,7.12891c0,3.92627-3.19385,7.12012-7.12012,7.12012Zm0-13.24902c-3.37451,0-6.12012,2.74951-6.12012,6.12891,0,3.37451,2.74561,6.12012,6.12012,6.12012s6.12012-2.74561,6.12012-6.12012c0-3.37939-2.74561-6.12891-6.12012-6.12891Z"/><path d="m36.88721,40.11523c-3.25781,0-5.9082-2.65039-5.9082-5.90869,0-3.26172,2.65039-5.91553,5.9082-5.91553s5.9082,2.65381,5.9082,5.91553c0,3.2583-2.65039,5.90869-5.9082,5.90869Zm0-10.82422c-2.70654,0-4.9082,2.20508-4.9082,4.91553,0,2.70654,2.20166,4.90869,4.9082,4.90869s4.9082-2.20215,4.9082-4.90869c0-2.71045-2.20166-4.91553-4.9082-4.91553Z"/><path d="m38.17578,83.33691h-2.57715c-2.80811,0-5.09277-2.28809-5.09277-5.09961v-12.53613c-2.99121-.14746-5.37939-2.62695-5.37939-5.6543v-10.59082c0-4.47412,3.63965-8.11426,8.11377-8.11426h7.29395c1.76709,0,3.45508.57227,4.88135,1.6543l-.60449.79688c-1.25098-.94922-2.72998-1.45117-4.27686-1.45117h-7.29395c-3.92236,0-7.11377,3.19141-7.11377,7.11426v10.59082c0,2.57031,2.09082,4.66113,4.66113,4.66113.396,0,.71826.32227.71826.71777v12.81152c0,2.26074,1.83594,4.09961,4.09277,4.09961h2.57715c2.25684,0,4.09277-1.83887,4.09277-4.09961v-7.19434h1v7.19434c0,2.81152-2.28467,5.09961-5.09277,5.09961Z"/><path d="m21.78857,83.3291h-3.15381c-3.37549,0-6.12207-2.75-6.12207-6.13086v-15.45312c-3.65186-.12305-6.58447-3.13184-6.58447-6.81348v-12.96387c0-5.41455,4.40527-9.81982,9.81982-9.81982h8.92773c1.78613,0,3.54785.5,5.09375,1.44678l-.52246.85254c-1.38867-.8501-2.96924-1.29932-4.57129-1.29932h-8.92773c-4.86328,0-8.81982,3.95654-8.81982,8.81982v12.96387c0,3.20801,2.60938,5.81738,5.81689,5.81738.42334,0,.76758.34473.76758.76758v15.68164c0,2.8291,2.29785,5.13086,5.12207,5.13086h3.15381c2.82471,0,5.12256-2.30176,5.12256-5.13086v-10.86426h1v10.86426c0,3.38086-2.74658,6.13086-6.12256,6.13086Z"/><path d="m79.78809,30.91162c-3.92578,0-7.11963-3.19385-7.11963-7.12012,0-3.93066,3.19385-7.12891,7.11963-7.12891,3.92627,0,7.12012,3.19824,7.12012,7.12891,0,3.92627-3.19385,7.12012-7.12012,7.12012Zm0-13.24902c-3.37451,0-6.11963,2.74951-6.11963,6.12891,0,3.37451,2.74512,6.12012,6.11963,6.12012s6.12012-2.74561,6.12012-6.12012c0-3.37939-2.74561-6.12891-6.12012-6.12891Z"/><path d="m63.11279,40.11523c-3.25781,0-5.9082-2.65039-5.9082-5.90869,0-3.26172,2.65039-5.91553,5.9082-5.91553s5.9082,2.65381,5.9082,5.91553c0,3.2583-2.65039,5.90869-5.9082,5.90869Zm0-10.82422c-2.70654,0-4.9082,2.20508-4.9082,4.91553,0,2.70654,2.20166,4.90869,4.9082,4.90869s4.9082-2.20215,4.9082-4.90869c0-2.71045-2.20166-4.91553-4.9082-4.91553Z"/><path d="m50,50.69971c-2.49658,0-4.52734-2.03076-4.52734-4.52734,0-2.49951,2.03076-4.5332,4.52734-4.5332s4.52734,2.03369,4.52734,4.5332c0,2.49658-2.03076,4.52734-4.52734,4.52734Zm0-8.06055c-1.94482,0-3.52734,1.58496-3.52734,3.5332,0,1.94482,1.58252,3.52734,3.52734,3.52734s3.52734-1.58252,3.52734-3.52734c0-1.94824-1.58252-3.5332-3.52734-3.5332Z"/><path d="m50.95947,83.3291h-1.91895c-2.16162,0-3.92041-1.76074-3.92041-3.92578v-9.2168c-.1792-.01367-.35791-.03809-.53418-.07422-.2832-.05859-.55713-.14453-.81641-.25488-1.61279-.68555-2.65527-2.25586-2.65527-4v-7.88672c0-3.40234,2.76758-6.16992,6.16992-6.16992h5.43164c3.40234,0,6.16992,2.76758,6.16992,6.16992v7.88672c0,2.28125-1.76807,4.15723-4.00586,4.33008v9.21582c0,2.16504-1.75879,3.92578-3.92041,3.92578Zm-3.67529-30.52832c-2.85059,0-5.16992,2.31934-5.16992,5.16992v7.88672c0,1.3418.80322,2.55078,2.04688,3.08008.19873.08398.40918.15039.62598.19531.22021.04492.44629.06738.67041.06738.36523,0,.6626.29785.6626.66309v9.54004c0,1.61328,1.31006,2.92578,2.92041,2.92578h1.91895c1.61035,0,2.92041-1.3125,2.92041-2.92578v-9.54004c0-.36523.29736-.66309.6626-.66309,1.84326,0,3.34326-1.5,3.34326-3.34277v-7.88672c0-2.85059-2.31934-5.16992-5.16992-5.16992h-5.43164Z"/><path d="m64.40674,83.35254h-2.57959c-2.82227,0-5.11816-2.2959-5.11816-5.11816v-7.22266h1v7.22266c0,2.27051,1.84717,4.11816,4.11816,4.11816h2.57959c2.2666,0,4.11084-1.84473,4.11084-4.11133v-9.05273c0-.39648.32275-.71875.71924-.71875h4.63232l-2.0625-22.11084c-.22119-2.37256-2.18506-4.16162-4.56787-4.16162h-7.78613c-1.43896,0-2.83301.4375-4.03174,1.26562l-.56836-.82227c1.3667-.94434,2.95703-1.44336,4.6001-1.44336h7.78613c2.90234,0,5.29395,2.1792,5.56396,5.06885l2.16406,23.20361h-5.44922v8.77148c0,2.81836-2.29248,5.11133-5.11084,5.11133Z"/><path d="m81.36328,83.43262h-3.19434c-3.37451,0-6.11963-2.74512-6.11963-6.12012v-6.30078h1v6.30078c0,2.82324,2.29688,5.12012,5.11963,5.12012h3.19434c2.82275,0,5.11963-2.29688,5.11963-5.12012v-11.0332c0-.42285.34424-.76758.76709-.76758h5.76562l-2.5249-27.06787c-.2749-2.94775-2.71484-5.1709-5.67578-5.1709h-10.09814c-1.52734,0-2.96191.59619-4.03955,1.67871l-.70898-.70605c1.26709-1.27197,2.95312-1.97266,4.74854-1.97266h10.09814c3.47998,0,6.34863,2.61279,6.67188,6.07812l2.62646,28.16064h-6.63037v10.80078c0,3.375-2.74512,6.12012-6.11963,6.12012Z"/><text x="0" y="115" fill="#000000" font-size="5px" font-weight="bold" font-family="'Helvetica Neue', Helvetica, Arial-Unicode, Arial, Sans-serif"> Eliricon</text><text x="0" y="120" fill="#000000" font-size="5px" font-weight="bold" font-family="'Helvetica Neue', Helvetica, Arial-Unicode, Arial, Sans-serif"></text></svg>