<svg xmlns="http://www.w3.org/2000/svg" version="1.1" viewBox="-5.0 -10.0 110.0 135.0">
 <path d="m43.836 55.93c-2.6211-0.69922-3.9023-0.67188-6.3125 0.87891l-11.227 7.2188c-1.0234-1.7617-3.2773-2.3633-5.043-1.3477l-8.1953 4.7344c-1.7656 1.0195-2.3711 3.2773-1.3516 5.043l11.949 20.699c0.48828 0.84766 1.2969 1.4648 2.2422 1.7148 0.3125 0.085937 0.63672 0.12891 0.96094 0.12891 0.64844 0 1.2812-0.17188 1.8398-0.49609l8.1992-4.7344c1.7617-1.0234 2.3633-3.2773 1.3477-5.043l-0.054688-0.09375 0.80078-0.46094c0.55859-0.26562 0.85937-0.38672 2.6719-0.19922l13.926 2.3281v-0.003906c0.62891 0.10938 1.2656 0.16406 1.9023 0.16406 1.3789 0.027343 2.7344-0.30859 3.9375-0.98047l23.715-13.605c1.6719-0.94531 2.8906-2.5273 3.3867-4.3828 0.77734-2.8438-0.23438-5.8789-2.5703-7.6836-2.3359-1.8047-5.5273-2.0234-8.0859-0.55078l-1.1211 0.64063-3.1602-8.2422c1.4688-0.67188 2.4102-2.1367 2.4102-3.7539v-5.6289c-0.003906-7.8633-6.3789-14.234-14.242-14.242h-5.5117c-1.9023-2.875-4.707-5.0352-7.9688-6.1523v-4.9844c0.28516-0.28516 0.54297-0.59375 0.77734-0.92578h11.531c2.6875-0.003906 4.8633-2.1836 4.8633-4.8711 0-2.6914-2.1758-4.8711-4.8633-4.875h-13.309c-2.375-1.6289-5.5078-1.6289-7.8828 0h-13.305c-2.6914 0.003906-4.8672 2.1836-4.8672 4.875 0 2.6875 2.1758 4.8672 4.8672 4.8711h11.531c0.23047 0.33203 0.48828 0.64062 0.77344 0.92578v4.9531c-3.3047 1.1055-6.1445 3.2812-8.0703 6.1836h-5.0508c-0.30469-2.0195-2.0391-3.5117-4.082-3.5156h-5.8594c-2.2773 0.003906-4.1211 1.8516-4.1211 4.125v15.844c0 2.2773 1.8438 4.1211 4.1211 4.125h5.8594c2.043 0 3.7773-1.4961 4.082-3.5156h5.0508c2.8711 4.3633 7.7422 6.9883 12.961 6.9883s10.09-2.625 12.961-6.9883h2.6914v2.8086c0 1.6172 0.94531 3.082 2.4141 3.7539l-3.1211 8.1328zm16.754-47.156c1.2773 0.003906 2.3164 1.043 2.3164 2.3242 0 1.2773-1.0391 2.3164-2.3164 2.3203h-10.422c0.33203-1.5742 0.10938-3.2148-0.63281-4.6445zm-24.074 4.6445h-10.422c-1.2812-0.003907-2.3164-1.043-2.3164-2.3203 0-1.2812 1.0352-2.3203 2.3164-2.3242h11.051c-0.74219 1.4297-0.96484 3.0703-0.62891 4.6445zm-13.746 31.066c0 0.87109-0.70312 1.5742-1.5742 1.5742h-5.8594c-0.86719 0-1.5703-0.70703-1.5703-1.5742v-15.844c0-0.86719 0.70312-1.5703 1.5703-1.5742h5.8594c0.87109 0 1.5742 0.70703 1.5742 1.5742zm13.379 42.383c-0.074219 0.29297-0.26563 0.54297-0.52734 0.69141l-8.1992 4.7383c-0.54688 0.3125-1.2422 0.125-1.5586-0.41797l-11.949-20.699c-0.3125-0.54297-0.125-1.2383 0.41797-1.5547l8.1992-4.7344v-0.003906c0.17188-0.097657 0.36719-0.15234 0.56641-0.15234 0.41016 0 0.78516 0.21875 0.99219 0.57031l0.67578 1.168c0.007813 0.011719 0.015625 0.027344 0.023437 0.039063l10.508 18.207c0.011719 0.027344 0.027344 0.054688 0.042969 0.085938 0.015625 0.027343 0.035156 0.054687 0.050781 0.082031l0.64453 1.1172h0.003906c0.15234 0.26172 0.19141 0.57031 0.10938 0.86328zm7.1914-79.316c1.7891 0 3.4062 1.0781 4.0898 2.7305 0.68359 1.6562 0.30469 3.5586-0.96094 4.8242s-3.168 1.6445-4.8203 0.96094c-1.6562-0.6875-2.7344-2.3008-2.7344-4.0898 0.003907-2.4414 1.9844-4.4219 4.4258-4.4258zm2.3906 10.98v2.7109c-1.582-0.25781-3.1953-0.26172-4.7812-0.015626v-2.6953c1.543 0.5625 3.2383 0.5625 4.7812 0zm14.488 24.012h-4.6758c-0.44922 0-0.86719 0.23828-1.0977 0.625-2.332 3.9453-6.5742 6.3633-11.156 6.3633-4.582 0-8.8242-2.4219-11.156-6.3633-0.23047-0.38672-0.64844-0.625-1.0977-0.625h-5.7109v-11.961h5.7109c0.44922 0 0.86719-0.23438 1.0977-0.62109 2.332-3.9453 6.5742-6.3633 11.156-6.3633 4.582 0 8.8242 2.418 11.156 6.3594 0.23047 0.38672 0.64844 0.625 1.0977 0.625h6.2188c6.4531 0.007813 11.688 5.2383 11.691 11.691v5.6289c0 0.87109-0.70312 1.5742-1.5703 1.5781h-8.8164c-0.86719-0.003907-1.5742-0.70703-1.5742-1.5781v-4.082c0-0.33984-0.13281-0.66406-0.375-0.90234-0.23828-0.23828-0.5625-0.375-0.89844-0.375zm3.7266 9.4883h7.0625l3.5078 9.1484-9.168 5.2344c-0.23438-2.7227-2.0547-5.0547-4.6406-5.9453zm-5.2734 10.52 0.9375 0.25c2.3047 0.625 3.6719 2.9922 3.0625 5.3008-0.023437 0.085938-0.046875 0.16797-0.074219 0.25-0.71875 2.1797-3.0156 3.418-5.2305 2.8203l-13.133-3.5195c-0.32812-0.085938-0.67578-0.042969-0.96875 0.12891-0.29688 0.16797-0.51172 0.44531-0.59766 0.77344-0.085938 0.32812-0.042969 0.67578 0.12891 0.96875 0.16797 0.29297 0.44922 0.50781 0.77734 0.59375l13.133 3.5156c3.3242 0.89844 6.8047-0.80469 8.1328-3.9883l14.305-8.1719h-0.003906c1.6602-0.96094 3.7383-0.82031 5.2578 0.35156 1.5195 1.1719 2.1797 3.1484 1.668 5-0.31641 1.1992-1.1055 2.2227-2.1875 2.8359l-23.723 13.609c-1.2773 0.65625-2.7461 0.83594-4.1445 0.51172l-13.965-2.3359c-0.027344-0.003906-0.054687-0.007812-0.078125-0.011718-2.1016-0.21484-2.9102-0.12891-4.1211 0.45312-0.027344 0.015625-0.058594 0.027343-0.085937 0.046875l-0.84375 0.48828-9.3438-16.184 11.328-7.2852c1.6406-1.0547 2.1602-1.125 4.2734-0.55859l15.496 4.1523zm-19.898-34.137c0.20312 0.26953 0.29297 0.60938 0.25 0.94141-0.046876 0.33594-0.22656 0.64062-0.49609 0.84375-0.37109 0.28516-0.72266 0.60156-1.0469 0.94141-0.48438 0.50781-1.2891 0.52734-1.8008 0.042969-0.50781-0.48047-0.53125-1.2852-0.050782-1.7969 0.41797-0.44141 0.87109-0.85156 1.3594-1.2188 0.55859-0.42578 1.3594-0.31641 1.7852 0.24609zm13.551 2.8047c0.35938 0.60547 0.16016 1.3867-0.44922 1.7461-0.60547 0.35938-1.3867 0.16016-1.7461-0.44531-1.7461-2.9414-5.1758-4.4375-8.5195-3.7227-0.32812 0.074219-0.67578 0.011719-0.96094-0.16797-0.28516-0.18359-0.48828-0.47266-0.55859-0.80469-0.074219-0.32812-0.011719-0.67578 0.17188-0.96094 0.17969-0.28516 0.46875-0.48438 0.80078-0.55859 0.73047-0.15625 1.4766-0.23828 2.2266-0.23438 3.707 0.007813 7.1367 1.9648 9.0352 5.1484z"/>
<text x="0.0" y="117.5" font-size="5.0" font-weight="bold" font-family="Arbeit Regular, Helvetica, Arial-Unicode, Arial, Sans-serif" fill="#000000"> kang somad</text><text x="0.0" y="122.5" font-size="5.0" font-weight="bold" font-family="Arbeit Regular, Helvetica, Arial-Unicode, Arial, Sans-serif" fill="#000000">from Noun Project</text></svg>