<svg xmlns="http://www.w3.org/2000/svg" version="1.1" viewBox="-5.0 -10.0 110.0 135.0">
 <path d="m84.641 30.012-0.26953-0.16016-0.85938-0.5-15.891-9.1797h-0.019532l-0.57031-0.32812-0.55859-0.32031-0.011718-0.011719-16.473-9.5117-17.031 9.8398-0.27734 0.16016-0.30078 0.17188-15.891 9.1797-1.1406 0.65625v40l17.309 10.012 0.14844 0.070313 17.184 9.9102 17.34-10.012v0.011719l17.32-10.012v-20.316l-0.011719-0.011719zm-34.652-18.703 15.898 9.1797-5.6914 3.2891-10.195 5.9023h-0.011719l-15.898-9.1914zm-17.609 67.23-15.891-9.1797v-18.359l15.891 9.1719zm0-19.688-8.9609-5.1719-6.3516-3.6719h-0.011718l-0.48047-0.28125-0.089844-0.058593 0.003906-18.348 15.34 8.8516 0.55859 0.32031 0.003906 18.359zm0.57031-19.34-0.57031-0.32812-15.328-8.8516 15.328-8.8516 0.57031-0.32812h0.011719l0.55859 0.32031 15.34 8.8516-15.34 8.8594-0.55859 0.32812zm0.57031 0.97656 0.55859-0.32031h0.011719v-0.011719l15.34-8.8516v18.359l-0.23047 0.14063-0.34766 0.19531h-0.011718l-15.328 8.8398v-18.352zm15.902 47.871-15.891-9.1602v-18.371l15.891 9.1719zm0.007813-19.66-15.328-8.8516 15.328-8.8594 0.53125-0.32031h0.019531l0.58984 0.33203 15.309 8.8398-15.309 8.8516-0.57812 0.32812zm17.031 10.48-15.898 9.1797-0.003906-18.371 15.898-9.1797zm0-20.34-10.602-6.1094-4.7188-2.7305h-0.019531l-0.53125-0.32031-0.011719-0.011719v-18.348l15.309 8.8398 0.011719 0.011719h0.011718l0.55859 0.32031v18.348zm0.57031-19.328-0.57031-0.32812-15.328-8.8516 10.988-6.3516 4.3398-2.5117 0.26953-0.16016h0.011719l0.28125-0.17188 0.57031 0.32812 15.34 8.8516-0.30078 0.17188-15.031 8.6914zm0.57031 1.2188h0.011719v-0.23828l0.57031-0.32813 15.328-8.8516v18.359l-0.55859 0.32031-15.352 8.8594zm15.91 28.621-15.898 9.1797-0.003906-18.371 15.898-9.1719z"/>
<text x="0.0" y="117.5" font-size="5.0" font-weight="bold" font-family="Arbeit Regular, Helvetica, Arial-Unicode, Arial, Sans-serif" fill="#000000"> M.HABIBI</text><text x="0.0" y="122.5" font-size="5.0" font-weight="bold" font-family="Arbeit Regular, Helvetica, Arial-Unicode, Arial, Sans-serif" fill="#000000">from Noun Project</text></svg>