<svg xmlns="http://www.w3.org/2000/svg" data-name="Layer 1" viewBox="0 0 128 160" x="0px" y="0px"><title>79 Web Icon Set 38 expanded</title><path d="M8,110h2a4.004,4.004,0,0,0,4-4v-1H87v8.74414c0,.12775.02667.24811.03772.373A6.23666,6.23666,0,0,0,82,120.22852v1.543A6.23537,6.23537,0,0,0,88.22852,128h29.543A6.23537,6.23537,0,0,0,124,121.77148v-1.543a6.23666,6.23666,0,0,0-5.03772-6.11139c.011-.12488.03772-.24524.03772-.373V84.25586c0-.13538-.02753-.26318-.04-.39539A6.36865,6.36865,0,0,0,124,77.64063V76.35938A6.36624,6.36624,0,0,0,117.64063,70H88.35938A6.36624,6.36624,0,0,0,82,76.35938v1.28125a6.36865,6.36865,0,0,0,5.04,6.21985c-.01245.1322-.04.26-.04.39539V93H14V92a4.004,4.004,0,0,0-4-4H8a4.004,4.004,0,0,0-4,4v14A4.004,4.004,0,0,0,8,110Zm83,3.74414V84.25586A.25674.25674,0,0,1,91.25586,84h23.48828A.25674.25674,0,0,1,115,84.25586v29.48828a.25674.25674,0,0,1-.25586.25586H91.25586A.25674.25674,0,0,1,91,113.74414Zm29,6.48438v1.543A2.23142,2.23142,0,0,1,117.77148,124h-29.543A2.23142,2.23142,0,0,1,86,121.77148v-1.543A2.23142,2.23142,0,0,1,88.22852,118h29.543A2.23142,2.23142,0,0,1,120,120.22852ZM86,77.64063V76.35938A2.36228,2.36228,0,0,1,88.35938,74h29.28125A2.36228,2.36228,0,0,1,120,76.35938v1.28125A2.36228,2.36228,0,0,1,117.64063,80H88.35938A2.36228,2.36228,0,0,1,86,77.64063ZM87,97v4H14V97ZM8,92h2l.00018,1H10v12h.00275l.00018,1H8Z"/><path d="M7.15234,68.835a5.97425,5.97425,0,0,0-.75781,2.56152A6.05461,6.05461,0,0,0,8.0918,76.10254a6.01163,6.01163,0,0,0,2.94379,1.56927A6.41372,6.41372,0,0,0,12.0791,81.0957a6.9847,6.9847,0,0,0,6.01953,3.14551,6.81634,6.81634,0,0,0,3.16309-.82129,5.99423,5.99423,0,0,0,4.3418,2.30859c.13867.00879.27734.0127.415.0127a6.13618,6.13618,0,0,0,5.744-3.80518,1.97916,1.97916,0,0,0,.30389-.92432c.38184-6.001,5.84863-11.55176,7.6748-13.24707,11.78906.89551,21.95215-1.999,29.44238-8.40918,8.31909-7.12128,13.23315-18.32983,14.24683-32.4314L88.681,25.16376a23.00828,23.00828,0,0,0-1.597,9.13312,1.99908,1.99908,0,0,0,1.99414,1.88184c.04,0,.08008-.001.12012-.00391a1.99883,1.99883,0,0,0,1.87793-2.11426,21.81481,21.81481,0,0,1,2.95184-11.079,12.4195,12.4195,0,0,0,6.50616,2.95892q.48779.04834.96289.04785a13.95231,13.95231,0,0,0,7.7334-2.74609,1.99925,1.99925,0,0,0,.28906-2.875c-.13574-.16016-3.3916-3.915-7.98437-4.377a10.0761,10.0761,0,0,0-2.22113.03851c.29-.29346.59265-.62531.89606-.99237a25.27129,25.27129,0,0,1,2.30347-1.82788A12.90146,12.90146,0,0,0,109.9873,16h.02637c4.61621-.0127,8.22168-3.43262,8.373-3.57812a1.99975,1.99975,0,0,0-.00781-2.88965C118.22754,9.3877,114.61523,6,110.0127,6h-.02637a11.14844,11.14844,0,0,0-4.61,1.08734,1.968,1.968,0,0,0-.20831.063c-.74969.31134-1.47888.66565-2.19214,1.04932a15.83574,15.83574,0,0,0-1.4729-7.09619A2.00084,2.00084,0,0,0,98.6084.334,13.71775,13.71775,0,0,0,93.31445,7.7207a14.2269,14.2269,0,0,0,.71893,8.07764,34.441,34.441,0,0,0-2.70831,3.89709L83.601,15.95789A15.7589,15.7589,0,0,0,70.127,6.43457a17.98816,17.98816,0,0,0-11.92188,3.66992c-3.88965,2.98633-5.209,7.0791-5.92383,10.31152-.00781.03711-.01465.07422-.02148.1123a34.3651,34.3651,0,0,0-.42712,6.14325,47.88545,47.88545,0,0,0-34.734-16.0954c-.01984.00012-.038.00513-.05768.00574-.01917.00006-.03729-.00439-.05658-.00378a7.00063,7.00063,0,0,0-4.416,12.1582,7.09832,7.09832,0,0,0,.58368.47565,6.98413,6.98413,0,0,0,1.02667,9.707,7.05738,7.05738,0,0,0,.7442.51678A6.99641,6.99641,0,0,0,19.25,43.90332a38.473,38.473,0,0,1,9.75616,4.11127A16.74964,16.74964,0,0,1,21.709,56.95508a13.71354,13.71354,0,0,1-10.9292,1.88165,1.91766,1.91766,0,0,0-.9126-.1297,5.48548,5.48548,0,0,0-5.22363,5.44141A5.20921,5.20921,0,0,0,7.15234,68.835ZM101.13477,19.9707a7.61294,7.61294,0,0,1,3.42188,1.34863,6.76681,6.76681,0,0,1-7.04395-.708A7.58311,7.58311,0,0,1,101.13477,19.9707ZM109.998,10a7.1091,7.1091,0,0,1,3.543.99023A7.62972,7.62972,0,0,1,110.002,12h-.01465a7.62672,7.62672,0,0,1-3.52832-.99023A7.62972,7.62972,0,0,1,109.998,10ZM97.19922,8.67188a8.00526,8.00526,0,0,1,1.5957-3.07422,8.70776,8.70776,0,0,1,.00586,3.73047,7.9248,7.9248,0,0,1-1.53363,2.99066c-.02228.02069-.043.043-.06525.06372A8.70579,8.70579,0,0,1,97.19922,8.67188ZM13.9375,63.28809a19.09034,19.09034,0,0,0,9.85254-2.917,20.81971,20.81971,0,0,0,8.74213-10.28558L36.96484,52.71A1.99957,1.99957,0,0,0,39.002,49.26855l-6.67187-3.9502a44.99088,44.99088,0,0,0-12.14355-5.30371,2.99616,2.99616,0,0,1-.74445-5.541,2.0527,2.0527,0,1,0-.82587-4.00006c-.038.013-.073.0307-.11066.04431a2.97767,2.97767,0,0,1-2.84442-2.70935,3.00408,3.00408,0,0,1,2.71-3.26562A1.99984,1.99984,0,0,0,18,20.56055c-.07458.007-.14618.02252-.22.03174a2.00479,2.00479,0,0,0-.35327-.022,3.01818,3.01818,0,0,1-2.1582-.78418,2.99906,2.99906,0,0,1,1.86133-5.20721c19.35608.28339,32.521,13.4201,36.27539,21.64764a1.99975,1.99975,0,0,0,3.63867-1.66016c-.12946-.28363-.27032-.56818-.4126-.85266a34.65159,34.65159,0,0,1-.43213-12.49011c.85645-3.83691,2.18652-6.21582,4.44141-7.94629A13.92067,13.92067,0,0,1,69.873,10.42676a11.76222,11.76222,0,0,1,10.291,7.6875c.0166.04529.04242.084.06189.12738a1.99622,1.99622,0,0,0,.103.212c.03143.05243.06976.09821.10547.14691a1.96453,1.96453,0,0,0,.12836.16779c.04041.04443.08636.08154.13031.12183a1.94507,1.94507,0,0,0,.16077.14142c.04993.0368.10461.06494.15753.09686.05353.03241.10211.07031.15955.09814l5.171,2.5022-5.44641,1.82593a2.00126,2.00126,0,0,0-1.347,2.15131,1.977,1.977,0,0,0-.06122.36627C78.64258,39.35449,74.17969,49.81348,66.582,56.31641,59.65039,62.249,50.45117,64.73633,39.23438,63.708a1.97051,1.97051,0,0,0-1.46094.45313c-.35651.29584-8.35309,7.05042-9.55841,15.42358a1.99451,1.99451,0,0,0-.06757.40259,2.08408,2.08408,0,0,1-2.29,1.749,2.0015,2.0015,0,0,1-1.86523-1.959,2,2,0,0,0-3.84473-.74414,2.21437,2.21437,0,0,1-2.127,1.208A2.92767,2.92767,0,0,1,15.43262,78.915a2.255,2.255,0,0,1-.21191-2.2168c.01324-.02838.01855-.05811.0304-.08673a1.97272,1.97272,0,0,0,.07532-.215c.01672-.05878.03021-.11713.04138-.17633a1.91368,1.91368,0,0,0,.03345-.40692c-.00067-.03448.00549-.06757.00305-.10236-.002-.02826-.011-.05389-.0141-.08179a1.98189,1.98189,0,0,0-.03522-.204c-.01385-.06342-.02856-.12585-.04816-.18665-.01929-.05969-.04315-.11688-.06793-.1745a1.975,1.975,0,0,0-.085-.17883c-.03137-.0567-.06763-.10992-.10449-.16357-.03467-.04993-.06879-.09937-.10767-.14575a1.97107,1.97107,0,0,0-.15009-.15741c-.03876-.03711-.077-.07391-.11859-.10785a1.97671,1.97671,0,0,0-.18854-.13416c-.04443-.02838-.08875-.05585-.13544-.08075-.03223-.01727-.05975-.03992-.09326-.0556-.0412-.01929-.08423-.028-.126-.04425-.04559-.0177-.09113-.03406-.13818-.04846a1.96965,1.96965,0,0,0-.2489-.05933c-.04517-.00781-.09027-.01392-.13629-.01874a1.96632,1.96632,0,0,0-.24536-.00934c-.03125.00049-.061-.00537-.09253-.00348a3.096,3.096,0,0,1-2.3584-.5918,2.0729,2.0729,0,0,1-.52344-1.61523,1.98126,1.98126,0,0,1,1.20117-1.69629,2.0007,2.0007,0,0,0-.53613-3.81836c-1.18262-.15527-2.46777-.92871-2.416-1.73242.07861-1.23822.64337-1.55981,1.24811-1.6673A14.98249,14.98249,0,0,0,13.9375,63.28809Z"/><path d="M31.94531,27.32617l6.44727,5.15332a2.00037,2.00037,0,0,0,2.498-3.125l-6.44727-5.15332a2.00037,2.00037,0,0,0-2.498,3.125Z"/><path d="M40.20215,40.18164l-6.44727-5.15332a2.00037,2.00037,0,0,0-2.498,3.125l6.44727,5.15332a2.00037,2.00037,0,0,0,2.498-3.125Z"/><path d="M47.792,38.93066a1.99984,1.99984,0,1,0,2.80664-2.84961l-2.35742-2.32227a1.99984,1.99984,0,0,0-2.80664,2.84961Z"/><text x="0" y="143" fill="#000000" font-size="5px" font-weight="bold" font-family="'Helvetica Neue', Helvetica, Arial-Unicode, Arial, Sans-serif"> Creative Mahira</text><text x="0" y="148" fill="#000000" font-size="5px" font-weight="bold" font-family="'Helvetica Neue', Helvetica, Arial-Unicode, Arial, Sans-serif"></text></svg>