<svg xmlns="http://www.w3.org/2000/svg" version="1.1" viewBox="-5.0 -10.0 110.0 135.0">
 <path d="m95.898 47.566c-7.5664-7.9141-15.25-13.938-22.84-17.906-7.6406-3.9961-15.398-6.0234-23.059-6.0234s-15.418 2.0273-23.059 6.0234c-7.5898 3.9688-15.273 9.9922-22.84 17.906-1.3047 1.3633-1.3047 3.5 0 4.8672 7.5664 7.9141 15.25 13.938 22.84 17.906 7.6406 3.9961 15.398 6.0234 23.059 6.0234s15.418-2.0273 23.059-6.0234c7.5898-3.9688 15.273-9.9922 22.84-17.906 1.3047-1.3633 1.3047-3.5 0-4.8672zm-1.5547 3.3828c-14.758 15.438-29.68 23.266-44.344 23.266s-29.586-7.8281-44.344-23.266c-0.50781-0.53125-0.50781-1.3672 0-1.8984 14.758-15.438 29.68-23.266 44.344-23.266s29.586 7.8281 44.344 23.266c0.50781 0.53125 0.50781 1.3672 0 1.8984zm-39.867-0.78516c-0.35547-0.13672-0.75391-0.074218-1.0508 0.16406-0.95703 0.76172-1.668 1.2812-2.6484 1.4688-1.5977-0.074219-2.5117 0.96094-3.1797 1.7188-0.33984 0.38281-0.65625 0.74609-0.99219 0.91016-1.043 0.50781-1.6562 1.6406-1.5195 2.8203 0.20703 1.8164 0.72266 2.5352 1.2227 3.2305 0.41797 0.58203 0.85156 1.1836 1.2031 2.8945 0.003906 0.015625 0.007812 0.035156 0.011719 0.050781 0.15234 0.58203 0.55078 2.1289 1.8438 2.2188 0.039062 0.003906 0.078124 0.003906 0.11328 0.003906 1.3867 0 2.2109-1.7617 3.3789-4.625 0.22656-0.55469 0.48047-1.1758 0.64453-1.4961 1.6758-1.3047 3.2617-4.332 2.9805-6.6836-0.15625-1.2891-0.87109-2.2383-2.0078-2.6758zm-2.3945 7.7422c-0.11328 0.078125-0.21094 0.17969-0.28906 0.29688-0.26562 0.40625-0.55469 1.1094-0.91797 2-0.29297 0.71484-0.8125 1.9922-1.25 2.7617-0.003906-0.019532-0.011719-0.039063-0.015625-0.058594-0.44531-2.1367-1.0625-2.9961-1.5586-3.6836-0.41406-0.57812-0.6875-0.95703-0.83203-2.2188-0.03125-0.27344 0.10156-0.53906 0.32422-0.64844 0.72266-0.35156 1.2227-0.92188 1.6641-1.4219 0.66406-0.75781 0.96875-1.0391 1.5312-0.98828 0.089844 0.007813 0.17578 0.003907 0.26562-0.007812 1.332-0.21484 2.3047-0.81641 3.1406-1.4453 0.097657 0.13672 0.17578 0.32812 0.20703 0.60937 0.1875 1.543-1.125 4.0195-2.2734 4.8125zm14.082 0.19531v-8.1016c0-0.59375-0.48047-1.0742-1.0742-1.0742s-1.0742 0.48047-1.0742 1.0742v8.1016c-1.293 0.44531-2.2227 1.6719-2.2227 3.1133 0 1.8164 1.4766 3.2969 3.2969 3.2969 1.8164 0 3.2969-1.4766 3.2969-3.2969 0-1.4414-0.92969-2.6641-2.2227-3.1133zm-1.0742 4.2617c-0.63281 0-1.1484-0.51562-1.1484-1.1484 0-0.63281 0.51562-1.1484 1.1484-1.1484 0.63281 0 1.1484 0.51562 1.1484 1.1484 0 0.63281-0.51562 1.1484-1.1484 1.1484zm3.8711-5.9805v-19.918c0-2.1328-1.7344-3.8711-3.8711-3.8711-1.2617 0-2.3828 0.60547-3.0898 1.543-1.8164-1.3789-3.8359-2.4258-6.0195-3.1133-1.9258-0.60938-3.9375-0.91406-5.9805-0.91406-4.5195 0-8.6914 1.5156-12.035 4.0664-0.078125 0.046875-0.15234 0.10156-0.21875 0.16797-4.6445 3.6445-7.6367 9.3086-7.6367 15.656 0 6.8203 3.4531 12.852 8.7031 16.438 0.035156 0.03125 0.070312 0.058594 0.10938 0.082031 0.03125 0.019531 0.058594 0.035157 0.089844 0.050781 3.1484 2.0977 6.9297 3.3203 10.988 3.3203 4.168 0 8.1172-1.2578 11.484-3.6484 1.0156 0.73047 2.2617 1.1641 3.6055 1.1641 3.4141 0 6.1914-2.7773 6.1914-6.1914 0-1.8945-0.85547-3.6602-2.3203-4.832zm-7.7422-19.918v13.395c-1.9609-2.8477-4.918-5.9141-8.5469-5.8359h-0.019531c-0.82422 0-2.5977-1.5586-3.0469-2.3516 0.57031-1.3516 1.375-2.4336 1.8711-2.8867 0.042969 0.23828 0.078126 0.61719 0.066407 1.1914-0.007813 0.28516 0.10156 0.5625 0.30469 0.76953 0.94141 0.96875 4.4961 2.6484 6.3594 1.5742 0.44531-0.25781 1.4258-1.0625 0.88281-2.9805-0.015625-0.054688-0.035156-0.10938-0.058594-0.16016-0.34375-0.73828-0.70703-1.3164-1.0273-1.8281-0.66406-1.0586-1.1797-1.8789-1.2734-3.7734 1.625 0.66406 3.1289 1.5625 4.5 2.6836-0.003907 0.066406-0.003907 0.13672-0.003907 0.20312zm-28.961 13.535c0-5.5312 2.543-10.48 6.5234-13.734 0.70312 0.19141 1.8281 0.59375 2.2031 0.84375 0.070313 0.21875 0.050781 0.47266-0.054687 0.67188-0.10156 0.19141-0.30469 0.40625-0.51953 0.63672-0.48438 0.51953-1.1484 1.2305-1.1055 2.2773 0.03125 0.75391 0.43359 1.3281 0.75391 1.793 0.10547 0.15625 0.26172 0.375 0.31641 0.50391-0.039062 0.023437-0.10547 0.054687-0.1875 0.074218-0.17578 0.042969-0.40234 0.050782-0.64062 0.0625-0.17188 0.007813-0.35156 0.015625-0.54297 0.035156-1.3906 0.14844-2.7148 0.91406-3.543 2.043-0.74219 1.0156-0.90625 2.168-0.43359 3.0703 0.73828 1.4297 2.5898 1.582 3.9531 1.0039 0.37109-0.15625 0.70703-0.34375 1.0312-0.52734 0.47656-0.26562 0.92188-0.51562 1.3438-0.57812 0.65234-0.097656 1.4062 0.28516 1.7969 0.91797 0.39453 0.63672 0.46875 1.5391 0.19141 2.3555-0.13672 0.38281-1.3828 1.1133-1.9805 1.4648-0.44531 0.26172-0.86719 0.50781-1.1836 0.75-0.15234 0.11328-0.3125 0.22656-0.46875 0.33984-0.76172 0.53516-1.707 1.2031-2.0781 2.3359-0.28125 0.86328-0.16797 1.8789 0.32813 2.9336 0.16406 0.34375 0.34375 0.65625 0.51953 0.96094 0.19141 0.33203 0.37109 0.64062 0.50391 0.95312 0.37109 0.86719 0.40234 1.8828 0.12109 2.8047-4.1641-3.25-6.8477-8.3125-6.8477-13.992zm8.6719 15.242c0.66797-1.5547 0.69141-3.3516 0.027343-4.9023-0.18359-0.42578-0.40625-0.80859-0.61719-1.1797-0.16016-0.27734-0.3125-0.54297-0.4375-0.80469-0.17969-0.38281-0.36719-0.92578-0.23047-1.3477 0.14844-0.45703 0.69531-0.84375 1.2734-1.25 0.17969-0.125 0.35938-0.25391 0.53125-0.38281 0.21875-0.16406 0.58594-0.38281 0.97266-0.60938 1.1914-0.69922 2.543-1.4961 2.9258-2.625 0.48438-1.4297 0.33594-2.9922-0.39844-4.1758-0.85156-1.3711-2.4375-2.1367-3.9453-1.9102-0.80469 0.12109-1.4766 0.49609-2.0664 0.82812-0.28906 0.16016-0.55859 0.3125-0.82422 0.42578-0.54297 0.23047-1.1211 0.15625-1.2109-0.015625-0.066407-0.12891 0.015624-0.47656 0.26172-0.81641 0.47656-0.64844 1.2383-1.0898 2.0391-1.1758 0.12891-0.011719 0.26562-0.019531 0.41406-0.027343 0.3125-0.015626 0.66797-0.03125 1.0391-0.12109 0.88281-0.20703 1.543-0.77734 1.7695-1.5234 0.30859-1.0156-0.25781-1.8281-0.62891-2.3672-0.15625-0.22266-0.36719-0.52734-0.37109-0.66016-0.007813-0.14453 0.30078-0.47656 0.52734-0.71484 0.28516-0.30469 0.60547-0.64844 0.83984-1.082 0.45703-0.84766 0.47266-1.9062 0.039063-2.7656-0.26953-0.53906-1.0586-0.97656-1.8828-1.3008 2.6445-1.5703 5.7305-2.4727 9.0234-2.4727 1.5547 0 3.0859 0.19922 4.5664 0.59375-0.003906 3.0508 0.78516 4.3125 1.6172 5.6406 0.28906 0.45703 0.58594 0.93359 0.86328 1.5117 0.0625 0.25391 0.066406 0.40625 0.054687 0.47266-0.50781 0.23828-2.4844-0.35938-3.4062-0.98047-0.019531-1.0352-0.22266-2.7656-1.6523-3.043-2.1211-0.41016-4.0352 3.3398-4.5898 4.8203-0.070313 0.18359-0.085937 0.38672-0.050781 0.58203 0.22656 1.1719 1.6016 2.418 2.0156 2.7734 0.69531 0.59375 2.0547 1.582 3.3086 1.5391h0.078126c3.2266 0 6.4336 4.0195 8.4141 7.8867v2.332c-1.4609 1.168-2.3203 2.9336-2.3203 4.832 0 1.2812 0.39062 2.4766 1.0625 3.4648-2.9414 2.0039-6.3594 3.0625-9.9648 3.0625-3.3125 0-6.4141-0.91406-9.0703-2.5zm24.16 0.015624c-2.2305 0-4.043-1.8125-4.043-4.043 0-1.3711 0.68359-2.6367 1.832-3.3867 0.30469-0.19922 0.48828-0.53516 0.48828-0.89844v-20.465c0-0.94922 0.77344-1.7227 1.7227-1.7227 0.94922 0 1.7227 0.77344 1.7227 1.7227v20.465c0 0.36328 0.18359 0.69922 0.48828 0.89844 1.1484 0.75 1.832 2.0156 1.832 3.3867 0 2.2305-1.8125 4.043-4.043 4.043zm11.719-10.996c0 0.59375-0.48047 1.0742-1.0742 1.0742h-4.4219c-0.59375 0-1.0742-0.48047-1.0742-1.0742s0.48047-1.0742 1.0742-1.0742h4.4219c0.59375 0 1.0742 0.48047 1.0742 1.0742zm-6.5664-4.2617c0-0.59375 0.48047-1.0742 1.0742-1.0742h1.6836c0.59375 0 1.0742 0.48047 1.0742 1.0742s-0.48047 1.0742-1.0742 1.0742h-1.6836c-0.59375 0-1.0742-0.48047-1.0742-1.0742zm6.5664-4.2617c0 0.59375-0.48047 1.0742-1.0742 1.0742h-4.4219c-0.59375 0-1.0742-0.48047-1.0742-1.0742s0.48047-1.0742 1.0742-1.0742h4.4219c0.59375 0 1.0742 0.48047 1.0742 1.0742zm-6.5664-4.2656c0-0.59375 0.48047-1.0742 1.0742-1.0742h1.6836c0.59375 0 1.0742 0.48047 1.0742 1.0742s-0.48047 1.0742-1.0742 1.0742h-1.6836c-0.59375 0-1.0742-0.48047-1.0742-1.0742zm6.5664-4.2617c0 0.59375-0.48047 1.0742-1.0742 1.0742h-4.4219c-0.59375 0-1.0742-0.48047-1.0742-1.0742s0.48047-1.0742 1.0742-1.0742h4.4219c0.59375 0 1.0742 0.48047 1.0742 1.0742z"/>
<text x="0.0" y="117.5" font-size="5.0" font-weight="bold" font-family="Arbeit Regular, Helvetica, Arial-Unicode, Arial, Sans-serif" fill="#000000"> Nakama Icon</text><text x="0.0" y="122.5" font-size="5.0" font-weight="bold" font-family="Arbeit Regular, Helvetica, Arial-Unicode, Arial, Sans-serif" fill="#000000">from Noun Project</text></svg>